<?xml version="1.0" encoding="UTF-8" standalone="no"?>
<svg
   xmlns:dc="http://purl.org/dc/elements/1.1/"
   xmlns:cc="http://creativecommons.org/ns#"
   xmlns:rdf="http://www.w3.org/1999/02/22-rdf-syntax-ns#"
   xmlns:svg="http://www.w3.org/2000/svg"
   xmlns="http://www.w3.org/2000/svg"
   xmlns:sodipodi="http://sodipodi.sourceforge.net/DTD/sodipodi-0.dtd"
   xmlns:inkscape="http://www.inkscape.org/namespaces/inkscape"
   version="1.1"
   id="svg2"
   xml:space="preserve"
   width="800"
   height="800"
   viewBox="0 0 1333.3333 1333.3333"
   sodipodi:docname="pattern-2490099.ai">
   <rect fill="#ffffff" width="100%" height="100%"/>
   <metadata id="metadata8"><rdf:RDF><cc:Work rdf:about=""><dc:format>image/svg+xml</dc:format><dc:type
           rdf:resource="http://purl.org/dc/dcmitype/StillImage" /></cc:Work></rdf:RDF></metadata><defs
     id="defs6"><clipPath clipPathUnits="userSpaceOnUse" id="clipPath18"><path d="M 0,0 H 1000 V 1000 H 0 Z" id="path16" /></clipPath></defs>
         <g id="g10" inkscape:groupmode="layer" inkscape:label="pattern-2490099" transform="matrix(1.3333333,0,0,-1.3333333,0,1333.3333)"><g
       id="g12">
       <g id="g14" clip-path="url(#clipPath18)"><g id="g20"
           transform="translate(38.48,947.1201)"><path
             d="m 0,0 c -1.92,1.92 -1.92,3.84 0,5.76 l 8.64,8.64 c 1.92,1.92 3.84,1.92 5.76,0 L 23.04,5.76 C 24.96,3.84 24.96,1.92 23.04,0 L 14.4,-8.64 c -1.92,-1.92 -3.84,-1.92 -5.76,0 z"
             style="fill:#c154c1;fill-opacity:1;fill-rule:nonzero;stroke:none"
             id="path22" /></g><g
           id="g24"
           transform="translate(32.3599,845.5898)"><path
             d="m 0,0 c -2.94,2.94 -2.94,5.88 0,8.82 l 13.23,13.23 c 2.94,2.94 5.88,2.94 8.82,0 L 35.28,8.82 C 38.22,5.88 38.22,2.94 35.28,0 L 22.05,-13.23 c -2.94,-2.94 -5.88,-2.94 -8.82,0 z"
             style="fill:#c154c1;fill-opacity:1;fill-rule:nonzero;stroke:none"
             id="path26" /></g><g
           id="g28"
           transform="translate(26.2402,744.0601)"><path
             d="M 0,0 C -3.96,3.96 -3.96,7.92 0,11.88 L 17.82,29.7 c 3.96,3.96 7.92,3.96 11.88,0 L 47.52,11.88 C 51.48,7.92 51.48,3.96 47.52,0 L 29.7,-17.82 c -3.96,-3.96 -7.92,-3.96 -11.88,0 z"
             style="fill:#c154c1;fill-opacity:1;fill-rule:nonzero;stroke:none"
             id="path30" /></g><g
           id="g32"
           transform="translate(20.1201,642.5298)"><path
             d="m 0,0 c -4.98,4.98 -4.98,9.96 0,14.94 l 22.41,22.41 c 4.98,4.98 9.96,4.98 14.94,0 L 59.76,14.94 C 64.74,9.96 64.74,4.98 59.76,0 L 37.35,-22.41 c -4.98,-4.98 -9.96,-4.98 -14.94,0 z"
             style="fill:#c154c1;fill-opacity:1;fill-rule:nonzero;stroke:none"
             id="path34" /></g><g
           id="g36"
           transform="translate(14,541)"><path
             d="m 0,0 c -6,6 -6,12 0,18 l 27,27 c 6,6 12,6 18,0 L 72,18 C 78,12 78,6 72,0 L 45,-27 c -6,-6 -12,-6 -18,0 z"
             style="fill:#c154c1;fill-opacity:1;fill-rule:nonzero;stroke:none"
             id="path38" /></g><g
           id="g40"
           transform="translate(14,441)"><path
             d="m 0,0 c -6,6 -6,12 0,18 l 27,27 c 6,6 12,6 18,0 L 72,18 C 78,12 78,6 72,0 L 45,-27 c -6,-6 -12,-6 -18,0 z"
             style="fill:#c154c1;fill-opacity:1;fill-rule:nonzero;stroke:none"
             id="path42" /></g><g
           id="g44"
           transform="translate(20.1201,342.5303)"><path
             d="M 0,0 C -4.98,4.979 -4.98,9.96 0,14.939 L 22.41,37.35 c 4.98,4.98 9.96,4.98 14.94,0 L 59.76,14.939 C 64.74,9.96 64.74,4.979 59.76,0 L 37.35,-22.41 c -4.98,-4.981 -9.96,-4.981 -14.94,0 z"
             style="fill:#c154c1;fill-opacity:1;fill-rule:nonzero;stroke:none"
             id="path46" /></g><g
           id="g48"
           transform="translate(26.2402,244.0596)"><path
             d="M 0,0 C -3.96,3.96 -3.96,7.921 0,11.881 L 17.82,29.7 c 3.96,3.96 7.92,3.96 11.88,0 L 47.52,11.881 C 51.48,7.921 51.48,3.96 47.52,0 L 29.7,-17.819 c -3.96,-3.96 -7.92,-3.96 -11.88,0 z"
             style="fill:#c154c1;fill-opacity:1;fill-rule:nonzero;stroke:none"
             id="path50" /></g><g
           id="g52"
           transform="translate(32.3599,145.5898)"><path
             d="m 0,0 c -2.94,2.94 -2.94,5.88 0,8.82 l 13.23,13.23 c 2.94,2.94 5.88,2.94 8.82,0 L 35.28,8.82 C 38.22,5.88 38.22,2.94 35.28,0 L 22.05,-13.229 c -2.94,-2.941 -5.88,-2.941 -8.82,0 z"
             style="fill:#c154c1;fill-opacity:1;fill-rule:nonzero;stroke:none"
             id="path54" /></g><g
           id="g56"
           transform="translate(38.48,47.1201)"><path
             d="m 0,0 c -1.92,1.92 -1.92,3.84 0,5.76 l 8.64,8.639 c 1.92,1.921 3.84,1.921 5.76,0 L 23.04,5.76 C 24.96,3.84 24.96,1.92 23.04,0 L 14.4,-8.64 c -1.92,-1.921 -3.84,-1.921 -5.76,0 z"
             style="fill:#c154c1;fill-opacity:1;fill-rule:nonzero;stroke:none"
             id="path58" /></g><g
           id="g60"
           transform="translate(138.48,947.1201)"><path
             d="m 0,0 c -1.92,1.92 -1.92,3.84 0,5.76 l 8.64,8.64 c 1.92,1.92 3.84,1.92 5.76,0 L 23.04,5.76 C 24.96,3.84 24.96,1.92 23.04,0 L 14.4,-8.64 c -1.92,-1.92 -3.84,-1.92 -5.76,0 z"
             style="fill:#c154c1;fill-opacity:1;fill-rule:nonzero;stroke:none"
             id="path62" /></g><g
           id="g64"
           transform="translate(132.3599,845.5898)"><path
             d="m 0,0 c -2.94,2.94 -2.94,5.88 0,8.82 l 13.23,13.23 c 2.94,2.94 5.88,2.94 8.82,0 L 35.28,8.82 C 38.22,5.88 38.22,2.94 35.28,0 L 22.05,-13.23 c -2.94,-2.94 -5.88,-2.94 -8.82,0 z"
             style="fill:#c154c1;fill-opacity:1;fill-rule:nonzero;stroke:none"
             id="path66" /></g><g
           id="g68"
           transform="translate(126.2402,744.0601)"><path
             d="M 0,0 C -3.96,3.96 -3.96,7.92 0,11.88 L 17.82,29.7 c 3.96,3.96 7.92,3.96 11.88,0 L 47.52,11.88 C 51.48,7.92 51.48,3.96 47.52,0 L 29.7,-17.82 c -3.96,-3.96 -7.92,-3.96 -11.88,0 z"
             style="fill:#c154c1;fill-opacity:1;fill-rule:nonzero;stroke:none"
             id="path70" /></g><g
           id="g72"
           transform="translate(120.1201,642.5298)"><path
             d="m 0,0 c -4.98,4.98 -4.98,9.96 0,14.94 l 22.41,22.41 c 4.98,4.98 9.96,4.98 14.94,0 L 59.76,14.94 C 64.74,9.96 64.74,4.98 59.76,0 L 37.35,-22.41 c -4.98,-4.98 -9.96,-4.98 -14.94,0 z"
             style="fill:#c154c1;fill-opacity:1;fill-rule:nonzero;stroke:none"
             id="path74" /></g><g
           id="g76"
           transform="translate(114,541)"><path
             d="m 0,0 c -6,6 -6,12 0,18 l 27,27 c 6,6 12,6 18,0 L 72,18 C 78,12 78,6 72,0 L 45,-27 c -6,-6 -12,-6 -18,0 z"
             style="fill:#c154c1;fill-opacity:1;fill-rule:nonzero;stroke:none"
             id="path78" /></g><g
           id="g80"
           transform="translate(114,441)"><path
             d="m 0,0 c -6,6 -6,12 0,18 l 27,27 c 6,6 12,6 18,0 L 72,18 C 78,12 78,6 72,0 L 45,-27 c -6,-6 -12,-6 -18,0 z"
             style="fill:#c154c1;fill-opacity:1;fill-rule:nonzero;stroke:none"
             id="path82" /></g><g
           id="g84"
           transform="translate(120.1201,342.5303)"><path
             d="M 0,0 C -4.98,4.979 -4.98,9.96 0,14.939 L 22.41,37.35 c 4.98,4.98 9.96,4.98 14.94,0 L 59.76,14.939 C 64.74,9.96 64.74,4.979 59.76,0 L 37.35,-22.41 c -4.98,-4.981 -9.96,-4.981 -14.94,0 z"
             style="fill:#c154c1;fill-opacity:1;fill-rule:nonzero;stroke:none"
             id="path86" /></g><g
           id="g88"
           transform="translate(126.2402,244.0596)"><path
             d="M 0,0 C -3.96,3.96 -3.96,7.921 0,11.881 L 17.82,29.7 c 3.96,3.96 7.92,3.96 11.88,0 L 47.52,11.881 C 51.48,7.921 51.48,3.96 47.52,0 L 29.7,-17.819 c -3.96,-3.96 -7.92,-3.96 -11.88,0 z"
             style="fill:#c154c1;fill-opacity:1;fill-rule:nonzero;stroke:none"
             id="path90" /></g><g
           id="g92"
           transform="translate(132.3599,145.5898)"><path
             d="m 0,0 c -2.94,2.94 -2.94,5.88 0,8.82 l 13.23,13.23 c 2.94,2.94 5.88,2.94 8.82,0 L 35.28,8.82 C 38.22,5.88 38.22,2.94 35.28,0 L 22.05,-13.229 c -2.94,-2.941 -5.88,-2.941 -8.82,0 z"
             style="fill:#c154c1;fill-opacity:1;fill-rule:nonzero;stroke:none"
             id="path94" /></g><g
           id="g96"
           transform="translate(138.48,47.1201)"><path
             d="m 0,0 c -1.92,1.92 -1.92,3.84 0,5.76 l 8.64,8.639 c 1.92,1.921 3.84,1.921 5.76,0 L 23.04,5.76 C 24.96,3.84 24.96,1.92 23.04,0 L 14.4,-8.64 c -1.92,-1.921 -3.84,-1.921 -5.76,0 z"
             style="fill:#c154c1;fill-opacity:1;fill-rule:nonzero;stroke:none"
             id="path98" /></g><g
           id="g100"
           transform="translate(238.48,947.1201)"><path
             d="m 0,0 c -1.92,1.92 -1.92,3.84 0,5.76 l 8.64,8.64 c 1.92,1.92 3.84,1.92 5.76,0 L 23.04,5.76 C 24.96,3.84 24.96,1.92 23.04,0 L 14.4,-8.64 c -1.92,-1.92 -3.84,-1.92 -5.76,0 z"
             style="fill:#c154c1;fill-opacity:1;fill-rule:nonzero;stroke:none"
             id="path102" /></g><g
           id="g104"
           transform="translate(232.3599,845.5898)"><path
             d="m 0,0 c -2.94,2.94 -2.94,5.88 0,8.82 l 13.23,13.23 c 2.94,2.94 5.88,2.94 8.82,0 L 35.28,8.82 C 38.22,5.88 38.22,2.94 35.28,0 L 22.05,-13.23 c -2.94,-2.94 -5.88,-2.94 -8.82,0 z"
             style="fill:#c154c1;fill-opacity:1;fill-rule:nonzero;stroke:none"
             id="path106" /></g><g
           id="g108"
           transform="translate(226.2402,744.0601)"><path
             d="M 0,0 C -3.96,3.96 -3.96,7.92 0,11.88 L 17.82,29.7 c 3.96,3.96 7.92,3.96 11.88,0 L 47.52,11.88 C 51.48,7.92 51.48,3.96 47.52,0 L 29.7,-17.82 c -3.96,-3.96 -7.92,-3.96 -11.88,0 z"
             style="fill:#c154c1;fill-opacity:1;fill-rule:nonzero;stroke:none"
             id="path110" /></g><g
           id="g112"
           transform="translate(220.1201,642.5298)"><path
             d="m 0,0 c -4.98,4.98 -4.98,9.96 0,14.94 l 22.41,22.41 c 4.98,4.98 9.96,4.98 14.94,0 L 59.76,14.94 C 64.74,9.96 64.74,4.98 59.76,0 L 37.35,-22.41 c -4.98,-4.98 -9.96,-4.98 -14.94,0 z"
             style="fill:#c154c1;fill-opacity:1;fill-rule:nonzero;stroke:none"
             id="path114" /></g><g
           id="g116"
           transform="translate(214,541)"><path
             d="m 0,0 c -6,6 -6,12 0,18 l 27,27 c 6,6 12,6 18,0 L 72,18 C 78,12 78,6 72,0 L 45,-27 c -6,-6 -12,-6 -18,0 z"
             style="fill:#c154c1;fill-opacity:1;fill-rule:nonzero;stroke:none"
             id="path118" /></g><g
           id="g120"
           transform="translate(214,441)"><path
             d="m 0,0 c -6,6 -6,12 0,18 l 27,27 c 6,6 12,6 18,0 L 72,18 C 78,12 78,6 72,0 L 45,-27 c -6,-6 -12,-6 -18,0 z"
             style="fill:#c154c1;fill-opacity:1;fill-rule:nonzero;stroke:none"
             id="path122" /></g><g
           id="g124"
           transform="translate(220.1201,342.5303)"><path
             d="M 0,0 C -4.98,4.979 -4.98,9.96 0,14.939 L 22.41,37.35 c 4.98,4.98 9.96,4.98 14.94,0 L 59.76,14.939 C 64.74,9.96 64.74,4.979 59.76,0 L 37.35,-22.41 c -4.98,-4.981 -9.96,-4.981 -14.94,0 z"
             style="fill:#c154c1;fill-opacity:1;fill-rule:nonzero;stroke:none"
             id="path126" /></g><g
           id="g128"
           transform="translate(226.2402,244.0596)"><path
             d="M 0,0 C -3.96,3.96 -3.96,7.921 0,11.881 L 17.82,29.7 c 3.96,3.96 7.92,3.96 11.88,0 L 47.52,11.881 C 51.48,7.921 51.48,3.96 47.52,0 L 29.7,-17.819 c -3.96,-3.96 -7.92,-3.96 -11.88,0 z"
             style="fill:#c154c1;fill-opacity:1;fill-rule:nonzero;stroke:none"
             id="path130" /></g><g
           id="g132"
           transform="translate(232.3599,145.5898)"><path
             d="m 0,0 c -2.94,2.94 -2.94,5.88 0,8.82 l 13.23,13.23 c 2.94,2.94 5.88,2.94 8.82,0 L 35.28,8.82 C 38.22,5.88 38.22,2.94 35.28,0 L 22.05,-13.229 c -2.94,-2.941 -5.88,-2.941 -8.82,0 z"
             style="fill:#c154c1;fill-opacity:1;fill-rule:nonzero;stroke:none"
             id="path134" /></g><g
           id="g136"
           transform="translate(238.48,47.1201)"><path
             d="m 0,0 c -1.92,1.92 -1.92,3.84 0,5.76 l 8.64,8.639 c 1.92,1.921 3.84,1.921 5.76,0 L 23.04,5.76 C 24.96,3.84 24.96,1.92 23.04,0 L 14.4,-8.64 c -1.92,-1.921 -3.84,-1.921 -5.76,0 z"
             style="fill:#c154c1;fill-opacity:1;fill-rule:nonzero;stroke:none"
             id="path138" /></g><g
           id="g140"
           transform="translate(338.4805,947.1201)"><path
             d="m 0,0 c -1.921,1.92 -1.921,3.84 0,5.76 l 8.64,8.64 c 1.92,1.92 3.839,1.92 5.759,0 l 8.64,-8.64 C 24.96,3.84 24.96,1.92 23.039,0 l -8.64,-8.64 c -1.92,-1.92 -3.839,-1.92 -5.759,0 z"
             style="fill:#c154c1;fill-opacity:1;fill-rule:nonzero;stroke:none"
             id="path142" /></g><g
           id="g144"
           transform="translate(332.3604,845.5898)"><path
             d="m 0,0 c -2.94,2.94 -2.94,5.88 0,8.82 l 13.229,13.23 c 2.941,2.94 5.88,2.94 8.821,0 L 35.279,8.82 C 38.22,5.88 38.22,2.94 35.279,0 L 22.05,-13.23 c -2.941,-2.94 -5.88,-2.94 -8.821,0 z"
             style="fill:#c154c1;fill-opacity:1;fill-rule:nonzero;stroke:none"
             id="path146" /></g><g
           id="g148"
           transform="translate(326.2402,744.0601)"><path
             d="M 0,0 C -3.96,3.96 -3.96,7.92 0,11.88 L 17.819,29.7 c 3.96,3.96 7.921,3.96 11.881,0 L 47.52,11.88 C 51.479,7.92 51.479,3.96 47.52,0 L 29.7,-17.82 c -3.96,-3.96 -7.921,-3.96 -11.881,0 z"
             style="fill:#c154c1;fill-opacity:1;fill-rule:nonzero;stroke:none"
             id="path150" /></g><g
           id="g152"
           transform="translate(320.1201,642.5298)"><path
             d="m 0,0 c -4.98,4.98 -4.98,9.96 0,14.94 l 22.41,22.41 c 4.98,4.98 9.96,4.98 14.94,0 L 59.76,14.94 C 64.74,9.96 64.74,4.98 59.76,0 L 37.35,-22.41 c -4.98,-4.98 -9.96,-4.98 -14.94,0 z"
             style="fill:#c154c1;fill-opacity:1;fill-rule:nonzero;stroke:none"
             id="path154" /></g><g
           id="g156"
           transform="translate(314,541)"><path
             d="m 0,0 c -6,6 -6,12 0,18 l 27,27 c 6,6 12,6 18,0 L 72,18 C 78,12 78,6 72,0 L 45,-27 c -6,-6 -12,-6 -18,0 z"
             style="fill:#c154c1;fill-opacity:1;fill-rule:nonzero;stroke:none"
             id="path158" /></g><g
           id="g160"
           transform="translate(314,441)"><path
             d="m 0,0 c -6,6 -6,12 0,18 l 27,27 c 6,6 12,6 18,0 L 72,18 C 78,12 78,6 72,0 L 45,-27 c -6,-6 -12,-6 -18,0 z"
             style="fill:#c154c1;fill-opacity:1;fill-rule:nonzero;stroke:none"
             id="path162" /></g><g
           id="g164"
           transform="translate(320.1201,342.5303)"><path
             d="M 0,0 C -4.98,4.979 -4.98,9.96 0,14.939 L 22.41,37.35 c 4.98,4.98 9.96,4.98 14.94,0 L 59.76,14.939 C 64.74,9.96 64.74,4.979 59.76,0 L 37.35,-22.41 c -4.98,-4.981 -9.96,-4.981 -14.94,0 z"
             style="fill:#c154c1;fill-opacity:1;fill-rule:nonzero;stroke:none"
             id="path166" /></g><g
           id="g168"
           transform="translate(326.2402,244.0596)"><path
             d="M 0,0 C -3.96,3.96 -3.96,7.921 0,11.881 L 17.819,29.7 c 3.96,3.96 7.921,3.96 11.881,0 L 47.52,11.881 C 51.479,7.921 51.479,3.96 47.52,0 L 29.7,-17.819 c -3.96,-3.96 -7.921,-3.96 -11.881,0 z"
             style="fill:#c154c1;fill-opacity:1;fill-rule:nonzero;stroke:none"
             id="path170" /></g><g
           id="g172"
           transform="translate(332.3604,145.5898)"><path
             d="m 0,0 c -2.94,2.94 -2.94,5.88 0,8.82 l 13.229,13.23 c 2.941,2.94 5.88,2.94 8.821,0 L 35.279,8.82 C 38.22,5.88 38.22,2.94 35.279,0 L 22.05,-13.229 c -2.941,-2.941 -5.88,-2.941 -8.821,0 z"
             style="fill:#c154c1;fill-opacity:1;fill-rule:nonzero;stroke:none"
             id="path174" /></g><g
           id="g176"
           transform="translate(338.4805,47.1201)"><path
             d="m 0,0 c -1.921,1.92 -1.921,3.84 0,5.76 l 8.64,8.639 c 1.92,1.921 3.839,1.921 5.759,0 L 23.039,5.76 C 24.96,3.84 24.96,1.92 23.039,0 l -8.64,-8.64 c -1.92,-1.921 -3.839,-1.921 -5.759,0 z"
             style="fill:#c154c1;fill-opacity:1;fill-rule:nonzero;stroke:none"
             id="path178" /></g><g
           id="g180"
           transform="translate(438.4805,947.1201)"><path
             d="m 0,0 c -1.921,1.92 -1.921,3.84 0,5.76 l 8.64,8.64 c 1.92,1.92 3.839,1.92 5.759,0 l 8.64,-8.64 C 24.96,3.84 24.96,1.92 23.039,0 l -8.64,-8.64 c -1.92,-1.92 -3.839,-1.92 -5.759,0 z"
             style="fill:#c154c1;fill-opacity:1;fill-rule:nonzero;stroke:none"
             id="path182" /></g><g
           id="g184"
           transform="translate(432.3604,845.5898)"><path
             d="m 0,0 c -2.94,2.94 -2.94,5.88 0,8.82 l 13.229,13.23 c 2.941,2.94 5.88,2.94 8.821,0 L 35.279,8.82 C 38.22,5.88 38.22,2.94 35.279,0 L 22.05,-13.23 c -2.941,-2.94 -5.88,-2.94 -8.821,0 z"
             style="fill:#c154c1;fill-opacity:1;fill-rule:nonzero;stroke:none"
             id="path186" /></g><g
           id="g188"
           transform="translate(426.2402,744.0601)"><path
             d="M 0,0 C -3.96,3.96 -3.96,7.92 0,11.88 L 17.819,29.7 c 3.96,3.96 7.921,3.96 11.881,0 L 47.52,11.88 C 51.479,7.92 51.479,3.96 47.52,0 L 29.7,-17.82 c -3.96,-3.96 -7.921,-3.96 -11.881,0 z"
             style="fill:#c154c1;fill-opacity:1;fill-rule:nonzero;stroke:none"
             id="path190" /></g><g
           id="g192"
           transform="translate(420.1201,642.5298)"><path
             d="m 0,0 c -4.98,4.98 -4.98,9.96 0,14.94 l 22.41,22.41 c 4.98,4.98 9.96,4.98 14.94,0 L 59.76,14.94 C 64.74,9.96 64.74,4.98 59.76,0 L 37.35,-22.41 c -4.98,-4.98 -9.96,-4.98 -14.94,0 z"
             style="fill:#c154c1;fill-opacity:1;fill-rule:nonzero;stroke:none"
             id="path194" /></g><g
           id="g196"
           transform="translate(414,541)"><path
             d="m 0,0 c -6,6 -6,12 0,18 l 27,27 c 6,6 12,6 18,0 L 72,18 C 78,12 78,6 72,0 L 45,-27 c -6,-6 -12,-6 -18,0 z"
             style="fill:#c154c1;fill-opacity:1;fill-rule:nonzero;stroke:none"
             id="path198" /></g><g
           id="g200"
           transform="translate(414,441)"><path
             d="m 0,0 c -6,6 -6,12 0,18 l 27,27 c 6,6 12,6 18,0 L 72,18 C 78,12 78,6 72,0 L 45,-27 c -6,-6 -12,-6 -18,0 z"
             style="fill:#c154c1;fill-opacity:1;fill-rule:nonzero;stroke:none"
             id="path202" /></g><g
           id="g204"
           transform="translate(420.1201,342.5303)"><path
             d="M 0,0 C -4.98,4.979 -4.98,9.96 0,14.939 L 22.41,37.35 c 4.98,4.98 9.96,4.98 14.94,0 L 59.76,14.939 C 64.74,9.96 64.74,4.979 59.76,0 L 37.35,-22.41 c -4.98,-4.981 -9.96,-4.981 -14.94,0 z"
             style="fill:#c154c1;fill-opacity:1;fill-rule:nonzero;stroke:none"
             id="path206" /></g><g
           id="g208"
           transform="translate(426.2402,244.0596)"><path
             d="M 0,0 C -3.96,3.96 -3.96,7.921 0,11.881 L 17.819,29.7 c 3.96,3.96 7.921,3.96 11.881,0 L 47.52,11.881 C 51.479,7.921 51.479,3.96 47.52,0 L 29.7,-17.819 c -3.96,-3.96 -7.921,-3.96 -11.881,0 z"
             style="fill:#c154c1;fill-opacity:1;fill-rule:nonzero;stroke:none"
             id="path210" /></g><g
           id="g212"
           transform="translate(432.3604,145.5898)"><path
             d="m 0,0 c -2.94,2.94 -2.94,5.88 0,8.82 l 13.229,13.23 c 2.941,2.94 5.88,2.94 8.821,0 L 35.279,8.82 C 38.22,5.88 38.22,2.94 35.279,0 L 22.05,-13.229 c -2.941,-2.941 -5.88,-2.941 -8.821,0 z"
             style="fill:#c154c1;fill-opacity:1;fill-rule:nonzero;stroke:none"
             id="path214" /></g><g
           id="g216"
           transform="translate(438.4805,47.1201)"><path
             d="m 0,0 c -1.921,1.92 -1.921,3.84 0,5.76 l 8.64,8.639 c 1.92,1.921 3.839,1.921 5.759,0 L 23.039,5.76 C 24.96,3.84 24.96,1.92 23.039,0 l -8.64,-8.64 c -1.92,-1.921 -3.839,-1.921 -5.759,0 z"
             style="fill:#c154c1;fill-opacity:1;fill-rule:nonzero;stroke:none"
             id="path218" /></g><g
           id="g220"
           transform="translate(538.4805,947.1201)"><path
             d="m 0,0 c -1.921,1.92 -1.921,3.84 0,5.76 l 8.64,8.64 c 1.92,1.92 3.839,1.92 5.759,0 l 8.64,-8.64 C 24.96,3.84 24.96,1.92 23.039,0 l -8.64,-8.64 c -1.92,-1.92 -3.839,-1.92 -5.759,0 z"
             style="fill:#c154c1;fill-opacity:1;fill-rule:nonzero;stroke:none"
             id="path222" /></g><g
           id="g224"
           transform="translate(532.3604,845.5898)"><path
             d="m 0,0 c -2.94,2.94 -2.94,5.88 0,8.82 l 13.229,13.23 c 2.941,2.94 5.88,2.94 8.821,0 L 35.279,8.82 C 38.22,5.88 38.22,2.94 35.279,0 L 22.05,-13.23 c -2.941,-2.94 -5.88,-2.94 -8.821,0 z"
             style="fill:#c154c1;fill-opacity:1;fill-rule:nonzero;stroke:none"
             id="path226" /></g><g
           id="g228"
           transform="translate(526.2402,744.0601)"><path
             d="M 0,0 C -3.96,3.96 -3.96,7.92 0,11.88 L 17.819,29.7 c 3.96,3.96 7.921,3.96 11.881,0 L 47.52,11.88 C 51.479,7.92 51.479,3.96 47.52,0 L 29.7,-17.82 c -3.96,-3.96 -7.921,-3.96 -11.881,0 z"
             style="fill:#c154c1;fill-opacity:1;fill-rule:nonzero;stroke:none"
             id="path230" /></g><g
           id="g232"
           transform="translate(520.1201,642.5298)"><path
             d="m 0,0 c -4.98,4.98 -4.98,9.96 0,14.94 l 22.41,22.41 c 4.98,4.98 9.96,4.98 14.94,0 L 59.76,14.94 C 64.74,9.96 64.74,4.98 59.76,0 L 37.35,-22.41 c -4.98,-4.98 -9.96,-4.98 -14.94,0 z"
             style="fill:#c154c1;fill-opacity:1;fill-rule:nonzero;stroke:none"
             id="path234" /></g><g
           id="g236"
           transform="translate(514,541)"><path
             d="m 0,0 c -6,6 -6,12 0,18 l 27,27 c 6,6 12,6 18,0 L 72,18 C 78,12 78,6 72,0 L 45,-27 c -6,-6 -12,-6 -18,0 z"
             style="fill:#c154c1;fill-opacity:1;fill-rule:nonzero;stroke:none"
             id="path238" /></g><g
           id="g240"
           transform="translate(514,441)"><path
             d="m 0,0 c -6,6 -6,12 0,18 l 27,27 c 6,6 12,6 18,0 L 72,18 C 78,12 78,6 72,0 L 45,-27 c -6,-6 -12,-6 -18,0 z"
             style="fill:#c154c1;fill-opacity:1;fill-rule:nonzero;stroke:none"
             id="path242" /></g><g
           id="g244"
           transform="translate(520.1201,342.5303)"><path
             d="M 0,0 C -4.98,4.979 -4.98,9.96 0,14.939 L 22.41,37.35 c 4.98,4.98 9.96,4.98 14.94,0 L 59.76,14.939 C 64.74,9.96 64.74,4.979 59.76,0 L 37.35,-22.41 c -4.98,-4.981 -9.96,-4.981 -14.94,0 z"
             style="fill:#c154c1;fill-opacity:1;fill-rule:nonzero;stroke:none"
             id="path246" /></g><g
           id="g248"
           transform="translate(526.2402,244.0596)"><path
             d="M 0,0 C -3.96,3.96 -3.96,7.921 0,11.881 L 17.819,29.7 c 3.96,3.96 7.921,3.96 11.881,0 L 47.52,11.881 C 51.479,7.921 51.479,3.96 47.52,0 L 29.7,-17.819 c -3.96,-3.96 -7.921,-3.96 -11.881,0 z"
             style="fill:#c154c1;fill-opacity:1;fill-rule:nonzero;stroke:none"
             id="path250" /></g><g
           id="g252"
           transform="translate(532.3604,145.5898)"><path
             d="m 0,0 c -2.94,2.94 -2.94,5.88 0,8.82 l 13.229,13.23 c 2.941,2.94 5.88,2.94 8.821,0 L 35.279,8.82 C 38.22,5.88 38.22,2.94 35.279,0 L 22.05,-13.229 c -2.941,-2.941 -5.88,-2.941 -8.821,0 z"
             style="fill:#c154c1;fill-opacity:1;fill-rule:nonzero;stroke:none"
             id="path254" /></g><g
           id="g256"
           transform="translate(538.4805,47.1201)"><path
             d="m 0,0 c -1.921,1.92 -1.921,3.84 0,5.76 l 8.64,8.639 c 1.92,1.921 3.839,1.921 5.759,0 L 23.039,5.76 C 24.96,3.84 24.96,1.92 23.039,0 l -8.64,-8.64 c -1.92,-1.921 -3.839,-1.921 -5.759,0 z"
             style="fill:#c154c1;fill-opacity:1;fill-rule:nonzero;stroke:none"
             id="path258" /></g><g
           id="g260"
           transform="translate(638.4805,947.1201)"><path
             d="m 0,0 c -1.921,1.92 -1.921,3.84 0,5.76 l 8.64,8.64 c 1.92,1.92 3.839,1.92 5.759,0 l 8.64,-8.64 C 24.96,3.84 24.96,1.92 23.039,0 l -8.64,-8.64 c -1.92,-1.92 -3.839,-1.92 -5.759,0 z"
             style="fill:#c154c1;fill-opacity:1;fill-rule:nonzero;stroke:none"
             id="path262" /></g><g
           id="g264"
           transform="translate(632.3604,845.5898)"><path
             d="m 0,0 c -2.94,2.94 -2.94,5.88 0,8.82 l 13.229,13.23 c 2.941,2.94 5.88,2.94 8.821,0 L 35.279,8.82 C 38.22,5.88 38.22,2.94 35.279,0 L 22.05,-13.23 c -2.941,-2.94 -5.88,-2.94 -8.821,0 z"
             style="fill:#c154c1;fill-opacity:1;fill-rule:nonzero;stroke:none"
             id="path266" /></g><g
           id="g268"
           transform="translate(626.2402,744.0601)"><path
             d="M 0,0 C -3.96,3.96 -3.96,7.92 0,11.88 L 17.819,29.7 c 3.96,3.96 7.921,3.96 11.881,0 L 47.52,11.88 C 51.479,7.92 51.479,3.96 47.52,0 L 29.7,-17.82 c -3.96,-3.96 -7.921,-3.96 -11.881,0 z"
             style="fill:#c154c1;fill-opacity:1;fill-rule:nonzero;stroke:none"
             id="path270" /></g><g
           id="g272"
           transform="translate(620.1201,642.5298)"><path
             d="m 0,0 c -4.98,4.98 -4.98,9.96 0,14.94 l 22.41,22.41 c 4.98,4.98 9.96,4.98 14.94,0 L 59.76,14.94 C 64.74,9.96 64.74,4.98 59.76,0 L 37.35,-22.41 c -4.98,-4.98 -9.96,-4.98 -14.94,0 z"
             style="fill:#c154c1;fill-opacity:1;fill-rule:nonzero;stroke:none"
             id="path274" /></g><g
           id="g276"
           transform="translate(614,541)"><path
             d="m 0,0 c -6,6 -6,12 0,18 l 27,27 c 6,6 12,6 18,0 L 72,18 C 78,12 78,6 72,0 L 45,-27 c -6,-6 -12,-6 -18,0 z"
             style="fill:#c154c1;fill-opacity:1;fill-rule:nonzero;stroke:none"
             id="path278" /></g><g
           id="g280"
           transform="translate(614,441)"><path
             d="m 0,0 c -6,6 -6,12 0,18 l 27,27 c 6,6 12,6 18,0 L 72,18 C 78,12 78,6 72,0 L 45,-27 c -6,-6 -12,-6 -18,0 z"
             style="fill:#c154c1;fill-opacity:1;fill-rule:nonzero;stroke:none"
             id="path282" /></g><g
           id="g284"
           transform="translate(620.1201,342.5303)"><path
             d="M 0,0 C -4.98,4.979 -4.98,9.96 0,14.939 L 22.41,37.35 c 4.98,4.98 9.96,4.98 14.94,0 L 59.76,14.939 C 64.74,9.96 64.74,4.979 59.76,0 L 37.35,-22.41 c -4.98,-4.981 -9.96,-4.981 -14.94,0 z"
             style="fill:#c154c1;fill-opacity:1;fill-rule:nonzero;stroke:none"
             id="path286" /></g><g
           id="g288"
           transform="translate(626.2402,244.0596)"><path
             d="M 0,0 C -3.96,3.96 -3.96,7.921 0,11.881 L 17.819,29.7 c 3.96,3.96 7.921,3.96 11.881,0 L 47.52,11.881 C 51.479,7.921 51.479,3.96 47.52,0 L 29.7,-17.819 c -3.96,-3.96 -7.921,-3.96 -11.881,0 z"
             style="fill:#c154c1;fill-opacity:1;fill-rule:nonzero;stroke:none"
             id="path290" /></g><g
           id="g292"
           transform="translate(632.3604,145.5898)"><path
             d="m 0,0 c -2.94,2.94 -2.94,5.88 0,8.82 l 13.229,13.23 c 2.941,2.94 5.88,2.94 8.821,0 L 35.279,8.82 C 38.22,5.88 38.22,2.94 35.279,0 L 22.05,-13.229 c -2.941,-2.941 -5.88,-2.941 -8.821,0 z"
             style="fill:#c154c1;fill-opacity:1;fill-rule:nonzero;stroke:none"
             id="path294" /></g><g
           id="g296"
           transform="translate(638.4805,47.1201)"><path
             d="m 0,0 c -1.921,1.92 -1.921,3.84 0,5.76 l 8.64,8.639 c 1.92,1.921 3.839,1.921 5.759,0 L 23.039,5.76 C 24.96,3.84 24.96,1.92 23.039,0 l -8.64,-8.64 c -1.92,-1.921 -3.839,-1.921 -5.759,0 z"
             style="fill:#c154c1;fill-opacity:1;fill-rule:nonzero;stroke:none"
             id="path298" /></g><g
           id="g300"
           transform="translate(738.4805,947.1201)"><path
             d="m 0,0 c -1.921,1.92 -1.921,3.84 0,5.76 l 8.64,8.64 c 1.92,1.92 3.839,1.92 5.759,0 l 8.64,-8.64 C 24.96,3.84 24.96,1.92 23.039,0 l -8.64,-8.64 c -1.92,-1.92 -3.839,-1.92 -5.759,0 z"
             style="fill:#c154c1;fill-opacity:1;fill-rule:nonzero;stroke:none"
             id="path302" /></g><g
           id="g304"
           transform="translate(732.3604,845.5898)"><path
             d="m 0,0 c -2.94,2.94 -2.94,5.88 0,8.82 l 13.229,13.23 c 2.941,2.94 5.88,2.94 8.821,0 L 35.279,8.82 C 38.22,5.88 38.22,2.94 35.279,0 L 22.05,-13.23 c -2.941,-2.94 -5.88,-2.94 -8.821,0 z"
             style="fill:#c154c1;fill-opacity:1;fill-rule:nonzero;stroke:none"
             id="path306" /></g><g
           id="g308"
           transform="translate(726.2402,744.0601)"><path
             d="M 0,0 C -3.96,3.96 -3.96,7.92 0,11.88 L 17.819,29.7 c 3.96,3.96 7.921,3.96 11.881,0 L 47.52,11.88 C 51.479,7.92 51.479,3.96 47.52,0 L 29.7,-17.82 c -3.96,-3.96 -7.921,-3.96 -11.881,0 z"
             style="fill:#c154c1;fill-opacity:1;fill-rule:nonzero;stroke:none"
             id="path310" /></g><g
           id="g312"
           transform="translate(720.1201,642.5298)"><path
             d="m 0,0 c -4.98,4.98 -4.98,9.96 0,14.94 l 22.41,22.41 c 4.98,4.98 9.96,4.98 14.94,0 L 59.76,14.94 C 64.74,9.96 64.74,4.98 59.76,0 L 37.35,-22.41 c -4.98,-4.98 -9.96,-4.98 -14.94,0 z"
             style="fill:#c154c1;fill-opacity:1;fill-rule:nonzero;stroke:none"
             id="path314" /></g><g
           id="g316"
           transform="translate(714,541)"><path
             d="m 0,0 c -6,6 -6,12 0,18 l 27,27 c 6,6 12,6 18,0 L 72,18 C 78,12 78,6 72,0 L 45,-27 c -6,-6 -12,-6 -18,0 z"
             style="fill:#c154c1;fill-opacity:1;fill-rule:nonzero;stroke:none"
             id="path318" /></g><g
           id="g320"
           transform="translate(714,441)"><path
             d="m 0,0 c -6,6 -6,12 0,18 l 27,27 c 6,6 12,6 18,0 L 72,18 C 78,12 78,6 72,0 L 45,-27 c -6,-6 -12,-6 -18,0 z"
             style="fill:#c154c1;fill-opacity:1;fill-rule:nonzero;stroke:none"
             id="path322" /></g><g
           id="g324"
           transform="translate(720.1201,342.5303)"><path
             d="M 0,0 C -4.98,4.979 -4.98,9.96 0,14.939 L 22.41,37.35 c 4.98,4.98 9.96,4.98 14.94,0 L 59.76,14.939 C 64.74,9.96 64.74,4.979 59.76,0 L 37.35,-22.41 c -4.98,-4.981 -9.96,-4.981 -14.94,0 z"
             style="fill:#c154c1;fill-opacity:1;fill-rule:nonzero;stroke:none"
             id="path326" /></g><g
           id="g328"
           transform="translate(726.2402,244.0596)"><path
             d="M 0,0 C -3.96,3.96 -3.96,7.921 0,11.881 L 17.819,29.7 c 3.96,3.96 7.921,3.96 11.881,0 L 47.52,11.881 C 51.479,7.921 51.479,3.96 47.52,0 L 29.7,-17.819 c -3.96,-3.96 -7.921,-3.96 -11.881,0 z"
             style="fill:#c154c1;fill-opacity:1;fill-rule:nonzero;stroke:none"
             id="path330" /></g><g
           id="g332"
           transform="translate(732.3604,145.5898)"><path
             d="m 0,0 c -2.94,2.94 -2.94,5.88 0,8.82 l 13.229,13.23 c 2.941,2.94 5.88,2.94 8.821,0 L 35.279,8.82 C 38.22,5.88 38.22,2.94 35.279,0 L 22.05,-13.229 c -2.941,-2.941 -5.88,-2.941 -8.821,0 z"
             style="fill:#c154c1;fill-opacity:1;fill-rule:nonzero;stroke:none"
             id="path334" /></g><g
           id="g336"
           transform="translate(738.4805,47.1201)"><path
             d="m 0,0 c -1.921,1.92 -1.921,3.84 0,5.76 l 8.64,8.639 c 1.92,1.921 3.839,1.921 5.759,0 L 23.039,5.76 C 24.96,3.84 24.96,1.92 23.039,0 l -8.64,-8.64 c -1.92,-1.921 -3.839,-1.921 -5.759,0 z"
             style="fill:#c154c1;fill-opacity:1;fill-rule:nonzero;stroke:none"
             id="path338" /></g><g
           id="g340"
           transform="translate(838.4805,947.1201)"><path
             d="m 0,0 c -1.921,1.92 -1.921,3.84 0,5.76 l 8.64,8.64 c 1.92,1.92 3.839,1.92 5.759,0 l 8.64,-8.64 C 24.96,3.84 24.96,1.92 23.039,0 l -8.64,-8.64 c -1.92,-1.92 -3.839,-1.92 -5.759,0 z"
             style="fill:#c154c1;fill-opacity:1;fill-rule:nonzero;stroke:none"
             id="path342" /></g><g
           id="g344"
           transform="translate(832.3604,845.5898)"><path
             d="m 0,0 c -2.94,2.94 -2.94,5.88 0,8.82 l 13.229,13.23 c 2.941,2.94 5.88,2.94 8.821,0 L 35.279,8.82 C 38.22,5.88 38.22,2.94 35.279,0 L 22.05,-13.23 c -2.941,-2.94 -5.88,-2.94 -8.821,0 z"
             style="fill:#c154c1;fill-opacity:1;fill-rule:nonzero;stroke:none"
             id="path346" /></g><g
           id="g348"
           transform="translate(826.2402,744.0601)"><path
             d="M 0,0 C -3.96,3.96 -3.96,7.92 0,11.88 L 17.819,29.7 c 3.96,3.96 7.921,3.96 11.881,0 L 47.52,11.88 C 51.479,7.92 51.479,3.96 47.52,0 L 29.7,-17.82 c -3.96,-3.96 -7.921,-3.96 -11.881,0 z"
             style="fill:#c154c1;fill-opacity:1;fill-rule:nonzero;stroke:none"
             id="path350" /></g><g
           id="g352"
           transform="translate(820.1201,642.5298)"><path
             d="m 0,0 c -4.98,4.98 -4.98,9.96 0,14.94 l 22.41,22.41 c 4.98,4.98 9.96,4.98 14.94,0 L 59.76,14.94 C 64.74,9.96 64.74,4.98 59.76,0 L 37.35,-22.41 c -4.98,-4.98 -9.96,-4.98 -14.94,0 z"
             style="fill:#c154c1;fill-opacity:1;fill-rule:nonzero;stroke:none"
             id="path354" /></g><g
           id="g356"
           transform="translate(814,541)"><path
             d="m 0,0 c -6,6 -6,12 0,18 l 27,27 c 6,6 12,6 18,0 L 72,18 C 78,12 78,6 72,0 L 45,-27 c -6,-6 -12,-6 -18,0 z"
             style="fill:#c154c1;fill-opacity:1;fill-rule:nonzero;stroke:none"
             id="path358" /></g><g
           id="g360"
           transform="translate(814,441)"><path
             d="m 0,0 c -6,6 -6,12 0,18 l 27,27 c 6,6 12,6 18,0 L 72,18 C 78,12 78,6 72,0 L 45,-27 c -6,-6 -12,-6 -18,0 z"
             style="fill:#c154c1;fill-opacity:1;fill-rule:nonzero;stroke:none"
             id="path362" /></g><g
           id="g364"
           transform="translate(820.1201,342.5303)"><path
             d="M 0,0 C -4.98,4.979 -4.98,9.96 0,14.939 L 22.41,37.35 c 4.98,4.98 9.96,4.98 14.94,0 L 59.76,14.939 C 64.74,9.96 64.74,4.979 59.76,0 L 37.35,-22.41 c -4.98,-4.981 -9.96,-4.981 -14.94,0 z"
             style="fill:#c154c1;fill-opacity:1;fill-rule:nonzero;stroke:none"
             id="path366" /></g><g
           id="g368"
           transform="translate(826.2402,244.0596)"><path
             d="M 0,0 C -3.96,3.96 -3.96,7.921 0,11.881 L 17.819,29.7 c 3.96,3.96 7.921,3.96 11.881,0 L 47.52,11.881 C 51.479,7.921 51.479,3.96 47.52,0 L 29.7,-17.819 c -3.96,-3.96 -7.921,-3.96 -11.881,0 z"
             style="fill:#c154c1;fill-opacity:1;fill-rule:nonzero;stroke:none"
             id="path370" /></g><g
           id="g372"
           transform="translate(832.3604,145.5898)"><path
             d="m 0,0 c -2.94,2.94 -2.94,5.88 0,8.82 l 13.229,13.23 c 2.941,2.94 5.88,2.94 8.821,0 L 35.279,8.82 C 38.22,5.88 38.22,2.94 35.279,0 L 22.05,-13.229 c -2.941,-2.941 -5.88,-2.941 -8.821,0 z"
             style="fill:#c154c1;fill-opacity:1;fill-rule:nonzero;stroke:none"
             id="path374" /></g><g
           id="g376"
           transform="translate(838.4805,47.1201)"><path
             d="m 0,0 c -1.921,1.92 -1.921,3.84 0,5.76 l 8.64,8.639 c 1.92,1.921 3.839,1.921 5.759,0 L 23.039,5.76 C 24.96,3.84 24.96,1.92 23.039,0 l -8.64,-8.64 c -1.92,-1.921 -3.839,-1.921 -5.759,0 z"
             style="fill:#c154c1;fill-opacity:1;fill-rule:nonzero;stroke:none"
             id="path378" /></g><g
           id="g380"
           transform="translate(938.4805,947.1201)"><path
             d="m 0,0 c -1.921,1.92 -1.921,3.84 0,5.76 l 8.64,8.64 c 1.92,1.92 3.839,1.92 5.759,0 l 8.64,-8.64 C 24.96,3.84 24.96,1.92 23.039,0 l -8.64,-8.64 c -1.92,-1.92 -3.839,-1.92 -5.759,0 z"
             style="fill:#c154c1;fill-opacity:1;fill-rule:nonzero;stroke:none"
             id="path382" /></g><g
           id="g384"
           transform="translate(932.3604,845.5898)"><path
             d="m 0,0 c -2.94,2.94 -2.94,5.88 0,8.82 l 13.229,13.23 c 2.941,2.94 5.88,2.94 8.821,0 L 35.279,8.82 C 38.22,5.88 38.22,2.94 35.279,0 L 22.05,-13.23 c -2.941,-2.94 -5.88,-2.94 -8.821,0 z"
             style="fill:#c154c1;fill-opacity:1;fill-rule:nonzero;stroke:none"
             id="path386" /></g><g
           id="g388"
           transform="translate(926.2402,744.0601)"><path
             d="M 0,0 C -3.96,3.96 -3.96,7.92 0,11.88 L 17.819,29.7 c 3.96,3.96 7.921,3.96 11.881,0 L 47.52,11.88 C 51.479,7.92 51.479,3.96 47.52,0 L 29.7,-17.82 c -3.96,-3.96 -7.921,-3.96 -11.881,0 z"
             style="fill:#c154c1;fill-opacity:1;fill-rule:nonzero;stroke:none"
             id="path390" /></g><g
           id="g392"
           transform="translate(920.1201,642.5298)"><path
             d="m 0,0 c -4.98,4.98 -4.98,9.96 0,14.94 l 22.41,22.41 c 4.98,4.98 9.96,4.98 14.94,0 L 59.76,14.94 C 64.74,9.96 64.74,4.98 59.76,0 L 37.35,-22.41 c -4.98,-4.98 -9.96,-4.98 -14.94,0 z"
             style="fill:#c154c1;fill-opacity:1;fill-rule:nonzero;stroke:none"
             id="path394" /></g><g
           id="g396"
           transform="translate(914,541)"><path
             d="m 0,0 c -6,6 -6,12 0,18 l 27,27 c 6,6 12,6 18,0 L 72,18 C 78,12 78,6 72,0 L 45,-27 c -6,-6 -12,-6 -18,0 z"
             style="fill:#c154c1;fill-opacity:1;fill-rule:nonzero;stroke:none"
             id="path398" /></g><g
           id="g400"
           transform="translate(914,441)"><path
             d="m 0,0 c -6,6 -6,12 0,18 l 27,27 c 6,6 12,6 18,0 L 72,18 C 78,12 78,6 72,0 L 45,-27 c -6,-6 -12,-6 -18,0 z"
             style="fill:#c154c1;fill-opacity:1;fill-rule:nonzero;stroke:none"
             id="path402" /></g><g
           id="g404"
           transform="translate(920.1201,342.5303)"><path
             d="M 0,0 C -4.98,4.979 -4.98,9.96 0,14.939 L 22.41,37.35 c 4.98,4.98 9.96,4.98 14.94,0 L 59.76,14.939 C 64.74,9.96 64.74,4.979 59.76,0 L 37.35,-22.41 c -4.98,-4.981 -9.96,-4.981 -14.94,0 z"
             style="fill:#c154c1;fill-opacity:1;fill-rule:nonzero;stroke:none"
             id="path406" /></g><g
           id="g408"
           transform="translate(926.2402,244.0596)"><path
             d="M 0,0 C -3.96,3.96 -3.96,7.921 0,11.881 L 17.819,29.7 c 3.96,3.96 7.921,3.96 11.881,0 L 47.52,11.881 C 51.479,7.921 51.479,3.96 47.52,0 L 29.7,-17.819 c -3.96,-3.96 -7.921,-3.96 -11.881,0 z"
             style="fill:#c154c1;fill-opacity:1;fill-rule:nonzero;stroke:none"
             id="path410" /></g><g
           id="g412"
           transform="translate(932.3604,145.5898)"><path
             d="m 0,0 c -2.94,2.94 -2.94,5.88 0,8.82 l 13.229,13.23 c 2.941,2.94 5.88,2.94 8.821,0 L 35.279,8.82 C 38.22,5.88 38.22,2.94 35.279,0 L 22.05,-13.229 c -2.941,-2.941 -5.88,-2.941 -8.821,0 z"
             style="fill:#c154c1;fill-opacity:1;fill-rule:nonzero;stroke:none"
             id="path414" /></g><g
           id="g416"
           transform="translate(938.4805,47.1201)"><path
             d="m 0,0 c -1.921,1.92 -1.921,3.84 0,5.76 l 8.64,8.639 c 1.92,1.921 3.839,1.921 5.759,0 L 23.039,5.76 C 24.96,3.84 24.96,1.92 23.039,0 l -8.64,-8.64 c -1.92,-1.921 -3.839,-1.921 -5.759,0 z"
             style="fill:#c154c1;fill-opacity:1;fill-rule:nonzero;stroke:none"
             id="path418" /></g><g
           id="g420"
           transform="translate(-9.3999,997.6499)"><path
             d="m 0,0 c -1.567,1.567 -1.567,3.133 0,4.7 l 7.05,7.05 c 1.567,1.567 3.133,1.567 4.7,0 L 18.8,4.7 c 1.567,-1.567 1.567,-3.133 0,-4.7 l -7.05,-7.05 c -1.567,-1.567 -3.133,-1.567 -4.7,0 z"
             style="fill:#c154c1;fill-opacity:1;fill-rule:nonzero;stroke:none"
             id="path422" /></g><g
           id="g424"
           transform="translate(-16.2002,895.9502)"><path
             d="m 0,0 c -2.7,2.7 -2.7,5.4 0,8.1 l 12.15,12.15 c 2.7,2.7 5.4,2.7 8.1,0 L 32.4,8.1 C 35.1,5.4 35.1,2.7 32.4,0 L 20.25,-12.15 c -2.7,-2.7 -5.4,-2.7 -8.1,0 z"
             style="fill:#c154c1;fill-opacity:1;fill-rule:nonzero;stroke:none"
             id="path426" /></g><g
           id="g428"
           transform="translate(-23,794.25)"><path
             d="m 0,0 c -3.833,3.833 -3.833,7.667 0,11.5 l 17.25,17.25 c 3.833,3.833 7.667,3.833 11.5,0 L 46,11.5 C 49.833,7.667 49.833,3.833 46,0 L 28.75,-17.25 c -3.833,-3.833 -7.667,-3.833 -11.5,0 z"
             style="fill:#c154c1;fill-opacity:1;fill-rule:nonzero;stroke:none"
             id="path430" /></g><g
           id="g432"
           transform="translate(-29.7998,692.5498)"><path
             d="m 0,0 c -4.967,4.967 -4.967,9.934 0,14.9 l 22.35,22.35 c 4.966,4.967 9.933,4.967 14.9,0 L 59.6,14.9 C 64.566,9.934 64.566,4.967 59.6,0 L 37.25,-22.35 c -4.967,-4.966 -9.934,-4.966 -14.9,0 z"
             style="fill:#c154c1;fill-opacity:1;fill-rule:nonzero;stroke:none"
             id="path434" /></g><g
           id="g436"
           transform="translate(-36.6001,590.8496)"><path
             d="m 0,0 c -6.1,6.101 -6.1,12.2 0,18.3 l 27.45,27.45 c 6.1,6.101 12.2,6.101 18.3,0 L 73.2,18.3 C 79.3,12.2 79.3,6.101 73.2,0 L 45.75,-27.449 c -6.1,-6.101 -12.2,-6.101 -18.3,0 z"
             style="fill:#c154c1;fill-opacity:1;fill-rule:nonzero;stroke:none"
             id="path438" /></g><g
           id="g440"
           transform="translate(-40,490)"><path
             d="m 0,0 c -6.667,6.667 -6.667,13.333 0,20 l 30,30 c 6.667,6.667 13.333,6.667 20,0 L 80,20 C 86.667,13.333 86.667,6.667 80,0 L 50,-30 c -6.667,-6.667 -13.333,-6.667 -20,0 z"
             style="fill:#c154c1;fill-opacity:1;fill-rule:nonzero;stroke:none"
             id="path442" /></g><g
           id="g444"
           transform="translate(-36.6001,390.8496)"><path
             d="M 0,0 C -6.1,6.101 -6.1,12.2 0,18.301 L 27.45,45.75 c 6.1,6.101 12.2,6.101 18.3,0 L 73.2,18.301 C 79.3,12.2 79.3,6.101 73.2,0 L 45.75,-27.449 c -6.1,-6.101 -12.2,-6.101 -18.3,0 z"
             style="fill:#c154c1;fill-opacity:1;fill-rule:nonzero;stroke:none"
             id="path446" /></g><g
           id="g448"
           transform="translate(-29.7998,292.5498)"><path
             d="m 0,0 c -4.967,4.967 -4.967,9.934 0,14.9 l 22.35,22.35 c 4.966,4.967 9.933,4.967 14.9,0 L 59.6,14.9 C 64.566,9.934 64.566,4.967 59.6,0 L 37.25,-22.35 c -4.967,-4.966 -9.934,-4.966 -14.9,0 z"
             style="fill:#c154c1;fill-opacity:1;fill-rule:nonzero;stroke:none"
             id="path450" /></g><g
           id="g452"
           transform="translate(-23,194.25)"><path
             d="m 0,0 c -3.833,3.833 -3.833,7.667 0,11.5 l 17.25,17.25 c 3.833,3.833 7.667,3.833 11.5,0 L 46,11.5 C 49.833,7.667 49.833,3.833 46,0 L 28.75,-17.25 c -3.833,-3.833 -7.667,-3.833 -11.5,0 z"
             style="fill:#c154c1;fill-opacity:1;fill-rule:nonzero;stroke:none"
             id="path454" /></g><g
           id="g456"
           transform="translate(-16.2002,95.9502)"><path
             d="m 0,0 c -2.7,2.7 -2.7,5.399 0,8.1 l 12.15,12.15 c 2.7,2.7 5.4,2.7 8.1,0 L 32.4,8.1 C 35.1,5.399 35.1,2.7 32.4,0 L 20.25,-12.15 c -2.7,-2.701 -5.4,-2.701 -8.1,0 z"
             style="fill:#c154c1;fill-opacity:1;fill-rule:nonzero;stroke:none"
             id="path458" /></g><g
           id="g460"
           transform="translate(-9.3999,-2.3496)"><path
             d="m 0,0 c -1.567,1.566 -1.567,3.133 0,4.699 l 7.05,7.051 c 1.567,1.566 3.133,1.566 4.7,0 L 18.8,4.699 C 20.367,3.133 20.367,1.566 18.8,0 l -7.05,-7.051 c -1.567,-1.566 -3.133,-1.566 -4.7,0 z"
             style="fill:#c154c1;fill-opacity:1;fill-rule:nonzero;stroke:none"
             id="path462" /></g><g
           id="g464"
           transform="translate(90.6001,997.6499)"><path
             d="m 0,0 c -1.567,1.567 -1.567,3.133 0,4.7 l 7.05,7.05 c 1.567,1.567 3.133,1.567 4.7,0 L 18.8,4.7 c 1.567,-1.567 1.567,-3.133 0,-4.7 l -7.05,-7.05 c -1.567,-1.567 -3.133,-1.567 -4.7,0 z"
             style="fill:#c154c1;fill-opacity:1;fill-rule:nonzero;stroke:none"
             id="path466" /></g><g
           id="g468"
           transform="translate(83.7998,895.9502)"><path
             d="m 0,0 c -2.7,2.7 -2.7,5.4 0,8.1 l 12.15,12.15 c 2.7,2.7 5.4,2.7 8.1,0 L 32.4,8.1 C 35.1,5.4 35.1,2.7 32.4,0 L 20.25,-12.15 c -2.7,-2.7 -5.4,-2.7 -8.1,0 z"
             style="fill:#c154c1;fill-opacity:1;fill-rule:nonzero;stroke:none"
             id="path470" /></g><g
           id="g472"
           transform="translate(77,794.25)"><path
             d="m 0,0 c -3.833,3.833 -3.833,7.667 0,11.5 l 17.25,17.25 c 3.833,3.833 7.667,3.833 11.5,0 L 46,11.5 C 49.833,7.667 49.833,3.833 46,0 L 28.75,-17.25 c -3.833,-3.833 -7.667,-3.833 -11.5,0 z"
             style="fill:#c154c1;fill-opacity:1;fill-rule:nonzero;stroke:none"
             id="path474" /></g><g
           id="g476"
           transform="translate(70.2002,692.5498)"><path
             d="m 0,0 c -4.967,4.967 -4.967,9.934 0,14.9 l 22.35,22.35 c 4.966,4.967 9.933,4.967 14.9,0 L 59.6,14.9 C 64.566,9.934 64.566,4.967 59.6,0 L 37.25,-22.35 c -4.967,-4.966 -9.934,-4.966 -14.9,0 z"
             style="fill:#c154c1;fill-opacity:1;fill-rule:nonzero;stroke:none"
             id="path478" /></g><g
           id="g480"
           transform="translate(63.3999,590.8496)"><path
             d="m 0,0 c -6.1,6.101 -6.1,12.2 0,18.3 l 27.45,27.45 c 6.1,6.101 12.2,6.101 18.3,0 L 73.2,18.3 C 79.3,12.2 79.3,6.101 73.2,0 L 45.75,-27.449 c -6.1,-6.101 -12.2,-6.101 -18.3,0 z"
             style="fill:#c154c1;fill-opacity:1;fill-rule:nonzero;stroke:none"
             id="path482" /></g><g
           id="g484"
           transform="translate(60,490)"><path
             d="m 0,0 c -6.667,6.667 -6.667,13.333 0,20 l 30,30 c 6.667,6.667 13.333,6.667 20,0 L 80,20 C 86.667,13.333 86.667,6.667 80,0 L 50,-30 c -6.667,-6.667 -13.333,-6.667 -20,0 z"
             style="fill:#c154c1;fill-opacity:1;fill-rule:nonzero;stroke:none"
             id="path486" /></g><g
           id="g488"
           transform="translate(63.3999,390.8496)"><path
             d="M 0,0 C -6.1,6.101 -6.1,12.2 0,18.301 L 27.45,45.75 c 6.1,6.101 12.2,6.101 18.3,0 L 73.2,18.301 C 79.3,12.2 79.3,6.101 73.2,0 L 45.75,-27.449 c -6.1,-6.101 -12.2,-6.101 -18.3,0 z"
             style="fill:#c154c1;fill-opacity:1;fill-rule:nonzero;stroke:none"
             id="path490" /></g><g
           id="g492"
           transform="translate(70.2002,292.5498)"><path
             d="m 0,0 c -4.967,4.967 -4.967,9.934 0,14.9 l 22.35,22.35 c 4.966,4.967 9.933,4.967 14.9,0 L 59.6,14.9 C 64.566,9.934 64.566,4.967 59.6,0 L 37.25,-22.35 c -4.967,-4.966 -9.934,-4.966 -14.9,0 z"
             style="fill:#c154c1;fill-opacity:1;fill-rule:nonzero;stroke:none"
             id="path494" /></g><g
           id="g496"
           transform="translate(77,194.25)"><path
             d="m 0,0 c -3.833,3.833 -3.833,7.667 0,11.5 l 17.25,17.25 c 3.833,3.833 7.667,3.833 11.5,0 L 46,11.5 C 49.833,7.667 49.833,3.833 46,0 L 28.75,-17.25 c -3.833,-3.833 -7.667,-3.833 -11.5,0 z"
             style="fill:#c154c1;fill-opacity:1;fill-rule:nonzero;stroke:none"
             id="path498" /></g><g
           id="g500"
           transform="translate(83.7998,95.9502)"><path
             d="m 0,0 c -2.7,2.7 -2.7,5.399 0,8.1 l 12.15,12.15 c 2.7,2.7 5.4,2.7 8.1,0 L 32.4,8.1 C 35.1,5.399 35.1,2.7 32.4,0 L 20.25,-12.15 c -2.7,-2.701 -5.4,-2.701 -8.1,0 z"
             style="fill:#c154c1;fill-opacity:1;fill-rule:nonzero;stroke:none"
             id="path502" /></g><g
           id="g504"
           transform="translate(90.6001,-2.3496)"><path
             d="m 0,0 c -1.567,1.566 -1.567,3.133 0,4.699 l 7.05,7.051 c 1.567,1.566 3.133,1.566 4.7,0 L 18.8,4.699 C 20.367,3.133 20.367,1.566 18.8,0 l -7.05,-7.051 c -1.567,-1.566 -3.133,-1.566 -4.7,0 z"
             style="fill:#c154c1;fill-opacity:1;fill-rule:nonzero;stroke:none"
             id="path506" /></g><g
           id="g508"
           transform="translate(190.6001,997.6499)"><path
             d="m 0,0 c -1.567,1.567 -1.567,3.133 0,4.7 l 7.05,7.05 c 1.567,1.567 3.133,1.567 4.7,0 L 18.8,4.7 c 1.567,-1.567 1.567,-3.133 0,-4.7 l -7.05,-7.05 c -1.567,-1.567 -3.133,-1.567 -4.7,0 z"
             style="fill:#c154c1;fill-opacity:1;fill-rule:nonzero;stroke:none"
             id="path510" /></g><g
           id="g512"
           transform="translate(183.7998,895.9502)"><path
             d="m 0,0 c -2.7,2.7 -2.7,5.4 0,8.1 l 12.15,12.15 c 2.7,2.7 5.4,2.7 8.1,0 L 32.4,8.1 C 35.1,5.4 35.1,2.7 32.4,0 L 20.25,-12.15 c -2.7,-2.7 -5.4,-2.7 -8.1,0 z"
             style="fill:#c154c1;fill-opacity:1;fill-rule:nonzero;stroke:none"
             id="path514" /></g><g
           id="g516"
           transform="translate(177,794.25)"><path
             d="m 0,0 c -3.833,3.833 -3.833,7.667 0,11.5 l 17.25,17.25 c 3.833,3.833 7.667,3.833 11.5,0 L 46,11.5 C 49.833,7.667 49.833,3.833 46,0 L 28.75,-17.25 c -3.833,-3.833 -7.667,-3.833 -11.5,0 z"
             style="fill:#c154c1;fill-opacity:1;fill-rule:nonzero;stroke:none"
             id="path518" /></g><g
           id="g520"
           transform="translate(170.2002,692.5498)"><path
             d="m 0,0 c -4.967,4.967 -4.967,9.934 0,14.9 l 22.35,22.35 c 4.966,4.967 9.933,4.967 14.9,0 L 59.6,14.9 C 64.566,9.934 64.566,4.967 59.6,0 L 37.25,-22.35 c -4.967,-4.966 -9.934,-4.966 -14.9,0 z"
             style="fill:#c154c1;fill-opacity:1;fill-rule:nonzero;stroke:none"
             id="path522" /></g><g
           id="g524"
           transform="translate(163.3999,590.8496)"><path
             d="m 0,0 c -6.1,6.101 -6.1,12.2 0,18.3 l 27.45,27.45 c 6.1,6.101 12.2,6.101 18.3,0 L 73.2,18.3 C 79.3,12.2 79.3,6.101 73.2,0 L 45.75,-27.449 c -6.1,-6.101 -12.2,-6.101 -18.3,0 z"
             style="fill:#c154c1;fill-opacity:1;fill-rule:nonzero;stroke:none"
             id="path526" /></g><g
           id="g528"
           transform="translate(160,490)"><path
             d="m 0,0 c -6.667,6.667 -6.667,13.333 0,20 l 30,30 c 6.667,6.667 13.333,6.667 20,0 L 80,20 C 86.667,13.333 86.667,6.667 80,0 L 50,-30 c -6.667,-6.667 -13.333,-6.667 -20,0 z"
             style="fill:#c154c1;fill-opacity:1;fill-rule:nonzero;stroke:none"
             id="path530" /></g><g
           id="g532"
           transform="translate(163.3999,390.8496)"><path
             d="M 0,0 C -6.1,6.101 -6.1,12.2 0,18.301 L 27.45,45.75 c 6.1,6.101 12.2,6.101 18.3,0 L 73.2,18.301 C 79.3,12.2 79.3,6.101 73.2,0 L 45.75,-27.449 c -6.1,-6.101 -12.2,-6.101 -18.3,0 z"
             style="fill:#c154c1;fill-opacity:1;fill-rule:nonzero;stroke:none"
             id="path534" /></g><g
           id="g536"
           transform="translate(170.2002,292.5498)"><path
             d="m 0,0 c -4.967,4.967 -4.967,9.934 0,14.9 l 22.35,22.35 c 4.966,4.967 9.933,4.967 14.9,0 L 59.6,14.9 C 64.566,9.934 64.566,4.967 59.6,0 L 37.25,-22.35 c -4.967,-4.966 -9.934,-4.966 -14.9,0 z"
             style="fill:#c154c1;fill-opacity:1;fill-rule:nonzero;stroke:none"
             id="path538" /></g><g
           id="g540"
           transform="translate(177,194.25)"><path
             d="m 0,0 c -3.833,3.833 -3.833,7.667 0,11.5 l 17.25,17.25 c 3.833,3.833 7.667,3.833 11.5,0 L 46,11.5 C 49.833,7.667 49.833,3.833 46,0 L 28.75,-17.25 c -3.833,-3.833 -7.667,-3.833 -11.5,0 z"
             style="fill:#c154c1;fill-opacity:1;fill-rule:nonzero;stroke:none"
             id="path542" /></g><g
           id="g544"
           transform="translate(183.7998,95.9502)"><path
             d="m 0,0 c -2.7,2.7 -2.7,5.399 0,8.1 l 12.15,12.15 c 2.7,2.7 5.4,2.7 8.1,0 L 32.4,8.1 C 35.1,5.399 35.1,2.7 32.4,0 L 20.25,-12.15 c -2.7,-2.701 -5.4,-2.701 -8.1,0 z"
             style="fill:#c154c1;fill-opacity:1;fill-rule:nonzero;stroke:none"
             id="path546" /></g><g
           id="g548"
           transform="translate(190.6001,-2.3496)"><path
             d="m 0,0 c -1.567,1.566 -1.567,3.133 0,4.699 l 7.05,7.051 c 1.567,1.566 3.133,1.566 4.7,0 L 18.8,4.699 C 20.367,3.133 20.367,1.566 18.8,0 l -7.05,-7.051 c -1.567,-1.566 -3.133,-1.566 -4.7,0 z"
             style="fill:#c154c1;fill-opacity:1;fill-rule:nonzero;stroke:none"
             id="path550" /></g><g
           id="g552"
           transform="translate(290.6001,997.6499)"><path
             d="m 0,0 c -1.567,1.567 -1.567,3.133 0,4.7 l 7.05,7.05 c 1.567,1.567 3.133,1.567 4.7,0 L 18.8,4.7 c 1.567,-1.567 1.567,-3.133 0,-4.7 l -7.05,-7.05 c -1.567,-1.567 -3.133,-1.567 -4.7,0 z"
             style="fill:#c154c1;fill-opacity:1;fill-rule:nonzero;stroke:none"
             id="path554" /></g><g
           id="g556"
           transform="translate(283.7998,895.9502)"><path
             d="m 0,0 c -2.7,2.7 -2.7,5.4 0,8.1 l 12.15,12.15 c 2.7,2.7 5.4,2.7 8.1,0 L 32.4,8.1 C 35.101,5.4 35.101,2.7 32.4,0 L 20.25,-12.15 c -2.7,-2.7 -5.4,-2.7 -8.1,0 z"
             style="fill:#c154c1;fill-opacity:1;fill-rule:nonzero;stroke:none"
             id="path558" /></g><g
           id="g560"
           transform="translate(277,794.25)"><path
             d="m 0,0 c -3.833,3.833 -3.833,7.667 0,11.5 l 17.25,17.25 c 3.833,3.833 7.667,3.833 11.5,0 L 46,11.5 C 49.833,7.667 49.833,3.833 46,0 L 28.75,-17.25 c -3.833,-3.833 -7.667,-3.833 -11.5,0 z"
             style="fill:#c154c1;fill-opacity:1;fill-rule:nonzero;stroke:none"
             id="path562" /></g><g
           id="g564"
           transform="translate(270.2002,692.5498)"><path
             d="m 0,0 c -4.967,4.967 -4.967,9.934 0,14.9 l 22.35,22.35 c 4.966,4.967 9.933,4.967 14.9,0 L 59.6,14.9 C 64.566,9.934 64.566,4.967 59.6,0 L 37.25,-22.35 c -4.967,-4.966 -9.934,-4.966 -14.9,0 z"
             style="fill:#c154c1;fill-opacity:1;fill-rule:nonzero;stroke:none"
             id="path566" /></g><g
           id="g568"
           transform="translate(263.3999,590.8496)"><path
             d="m 0,0 c -6.1,6.101 -6.1,12.2 0,18.3 l 27.45,27.45 c 6.1,6.101 12.2,6.101 18.3,0 L 73.2,18.3 C 79.3,12.2 79.3,6.101 73.2,0 L 45.75,-27.449 c -6.1,-6.101 -12.2,-6.101 -18.3,0 z"
             style="fill:#c154c1;fill-opacity:1;fill-rule:nonzero;stroke:none"
             id="path570" /></g><g
           id="g572"
           transform="translate(260,490)"><path
             d="m 0,0 c -6.667,6.667 -6.667,13.333 0,20 l 30,30 c 6.667,6.667 13.333,6.667 20,0 L 80,20 C 86.667,13.333 86.667,6.667 80,0 L 50,-30 c -6.667,-6.667 -13.333,-6.667 -20,0 z"
             style="fill:#c154c1;fill-opacity:1;fill-rule:nonzero;stroke:none"
             id="path574" /></g><g
           id="g576"
           transform="translate(263.3999,390.8496)"><path
             d="M 0,0 C -6.1,6.101 -6.1,12.2 0,18.301 L 27.45,45.75 c 6.1,6.101 12.2,6.101 18.3,0 L 73.2,18.301 C 79.3,12.2 79.3,6.101 73.2,0 L 45.75,-27.449 c -6.1,-6.101 -12.2,-6.101 -18.3,0 z"
             style="fill:#c154c1;fill-opacity:1;fill-rule:nonzero;stroke:none"
             id="path578" /></g><g
           id="g580"
           transform="translate(270.2002,292.5498)"><path
             d="m 0,0 c -4.967,4.967 -4.967,9.934 0,14.9 l 22.35,22.35 c 4.966,4.967 9.933,4.967 14.9,0 L 59.6,14.9 C 64.566,9.934 64.566,4.967 59.6,0 L 37.25,-22.35 c -4.967,-4.966 -9.934,-4.966 -14.9,0 z"
             style="fill:#c154c1;fill-opacity:1;fill-rule:nonzero;stroke:none"
             id="path582" /></g><g
           id="g584"
           transform="translate(277,194.25)"><path
             d="m 0,0 c -3.833,3.833 -3.833,7.667 0,11.5 l 17.25,17.25 c 3.833,3.833 7.667,3.833 11.5,0 L 46,11.5 C 49.833,7.667 49.833,3.833 46,0 L 28.75,-17.25 c -3.833,-3.833 -7.667,-3.833 -11.5,0 z"
             style="fill:#c154c1;fill-opacity:1;fill-rule:nonzero;stroke:none"
             id="path586" /></g><g
           id="g588"
           transform="translate(283.7998,95.9502)"><path
             d="m 0,0 c -2.7,2.7 -2.7,5.399 0,8.1 l 12.15,12.15 c 2.7,2.7 5.4,2.7 8.1,0 L 32.4,8.1 C 35.101,5.399 35.101,2.7 32.4,0 L 20.25,-12.15 c -2.7,-2.701 -5.4,-2.701 -8.1,0 z"
             style="fill:#c154c1;fill-opacity:1;fill-rule:nonzero;stroke:none"
             id="path590" /></g><g
           id="g592"
           transform="translate(290.6001,-2.3496)"><path
             d="m 0,0 c -1.567,1.566 -1.567,3.133 0,4.699 l 7.05,7.051 c 1.567,1.566 3.133,1.566 4.7,0 L 18.8,4.699 C 20.367,3.133 20.367,1.566 18.8,0 l -7.05,-7.051 c -1.567,-1.566 -3.133,-1.566 -4.7,0 z"
             style="fill:#c154c1;fill-opacity:1;fill-rule:nonzero;stroke:none"
             id="path594" /></g><g
           id="g596"
           transform="translate(390.5996,997.6499)"><path
             d="m 0,0 c -1.566,1.567 -1.566,3.133 0,4.7 l 7.051,7.05 c 1.566,1.567 3.133,1.567 4.699,0 L 18.801,4.7 c 1.566,-1.567 1.566,-3.133 0,-4.7 L 11.75,-7.05 c -1.566,-1.567 -3.133,-1.567 -4.699,0 z"
             style="fill:#c154c1;fill-opacity:1;fill-rule:nonzero;stroke:none"
             id="path598" /></g><g
           id="g600"
           transform="translate(383.7998,895.9502)"><path
             d="m 0,0 c -2.7,2.7 -2.7,5.4 0,8.1 l 12.15,12.15 c 2.701,2.7 5.4,2.7 8.1,0 L 32.4,8.1 C 35.101,5.4 35.101,2.7 32.4,0 L 20.25,-12.15 c -2.7,-2.7 -5.399,-2.7 -8.1,0 z"
             style="fill:#c154c1;fill-opacity:1;fill-rule:nonzero;stroke:none"
             id="path602" /></g><g
           id="g604"
           transform="translate(377,794.25)"><path
             d="m 0,0 c -3.833,3.833 -3.833,7.667 0,11.5 l 17.25,17.25 c 3.833,3.833 7.667,3.833 11.5,0 L 46,11.5 C 49.833,7.667 49.833,3.833 46,0 L 28.75,-17.25 c -3.833,-3.833 -7.667,-3.833 -11.5,0 z"
             style="fill:#c154c1;fill-opacity:1;fill-rule:nonzero;stroke:none"
             id="path606" /></g><g
           id="g608"
           transform="translate(370.2002,692.5498)"><path
             d="m 0,0 c -4.967,4.967 -4.967,9.934 0,14.9 l 22.35,22.35 c 4.966,4.967 9.933,4.967 14.9,0 L 59.6,14.9 C 64.566,9.934 64.566,4.967 59.6,0 L 37.25,-22.35 c -4.967,-4.966 -9.934,-4.966 -14.9,0 z"
             style="fill:#c154c1;fill-opacity:1;fill-rule:nonzero;stroke:none"
             id="path610" /></g><g
           id="g612"
           transform="translate(363.4004,590.8496)"><path
             d="m 0,0 c -6.101,6.101 -6.101,12.2 0,18.3 l 27.449,27.45 c 6.101,6.101 12.2,6.101 18.301,0 L 73.199,18.3 C 79.3,12.2 79.3,6.101 73.199,0 L 45.75,-27.449 c -6.101,-6.101 -12.2,-6.101 -18.301,0 z"
             style="fill:#c154c1;fill-opacity:1;fill-rule:nonzero;stroke:none"
             id="path614" /></g><g
           id="g616"
           transform="translate(360,490)"><path
             d="m 0,0 c -6.667,6.667 -6.667,13.333 0,20 l 30,30 c 6.667,6.667 13.333,6.667 20,0 L 80,20 C 86.667,13.333 86.667,6.667 80,0 L 50,-30 c -6.667,-6.667 -13.333,-6.667 -20,0 z"
             style="fill:#c154c1;fill-opacity:1;fill-rule:nonzero;stroke:none"
             id="path618" /></g><g
           id="g620"
           transform="translate(363.4004,390.8496)"><path
             d="M 0,0 C -6.101,6.101 -6.101,12.2 0,18.301 L 27.449,45.75 c 6.101,6.101 12.2,6.101 18.301,0 L 73.199,18.301 C 79.3,12.2 79.3,6.101 73.199,0 L 45.75,-27.449 c -6.101,-6.101 -12.2,-6.101 -18.301,0 z"
             style="fill:#c154c1;fill-opacity:1;fill-rule:nonzero;stroke:none"
             id="path622" /></g><g
           id="g624"
           transform="translate(370.2002,292.5498)"><path
             d="m 0,0 c -4.967,4.967 -4.967,9.934 0,14.9 l 22.35,22.35 c 4.966,4.967 9.933,4.967 14.9,0 L 59.6,14.9 C 64.566,9.934 64.566,4.967 59.6,0 L 37.25,-22.35 c -4.967,-4.966 -9.934,-4.966 -14.9,0 z"
             style="fill:#c154c1;fill-opacity:1;fill-rule:nonzero;stroke:none"
             id="path626" /></g><g
           id="g628"
           transform="translate(377,194.25)"><path
             d="m 0,0 c -3.833,3.833 -3.833,7.667 0,11.5 l 17.25,17.25 c 3.833,3.833 7.667,3.833 11.5,0 L 46,11.5 C 49.833,7.667 49.833,3.833 46,0 L 28.75,-17.25 c -3.833,-3.833 -7.667,-3.833 -11.5,0 z"
             style="fill:#c154c1;fill-opacity:1;fill-rule:nonzero;stroke:none"
             id="path630" /></g><g
           id="g632"
           transform="translate(383.7998,95.9502)"><path
             d="m 0,0 c -2.7,2.7 -2.7,5.399 0,8.1 l 12.15,12.15 c 2.701,2.7 5.4,2.7 8.1,0 L 32.4,8.1 C 35.101,5.399 35.101,2.7 32.4,0 L 20.25,-12.15 c -2.7,-2.701 -5.399,-2.701 -8.1,0 z"
             style="fill:#c154c1;fill-opacity:1;fill-rule:nonzero;stroke:none"
             id="path634" /></g><g
           id="g636"
           transform="translate(390.5996,-2.3496)"><path
             d="m 0,0 c -1.566,1.566 -1.566,3.133 0,4.699 l 7.051,7.051 c 1.566,1.566 3.133,1.566 4.699,0 L 18.801,4.699 C 20.367,3.133 20.367,1.566 18.801,0 L 11.75,-7.051 c -1.566,-1.566 -3.133,-1.566 -4.699,0 z"
             style="fill:#c154c1;fill-opacity:1;fill-rule:nonzero;stroke:none"
             id="path638" /></g><g
           id="g640"
           transform="translate(490.5996,997.6499)"><path
             d="m 0,0 c -1.566,1.567 -1.566,3.133 0,4.7 l 7.051,7.05 c 1.566,1.567 3.133,1.567 4.699,0 L 18.801,4.7 c 1.566,-1.567 1.566,-3.133 0,-4.7 L 11.75,-7.05 c -1.566,-1.567 -3.133,-1.567 -4.699,0 z"
             style="fill:#c154c1;fill-opacity:1;fill-rule:nonzero;stroke:none"
             id="path642" /></g><g
           id="g644"
           transform="translate(483.7998,895.9502)"><path
             d="m 0,0 c -2.7,2.7 -2.7,5.4 0,8.1 l 12.15,12.15 c 2.701,2.7 5.4,2.7 8.1,0 L 32.4,8.1 C 35.101,5.4 35.101,2.7 32.4,0 L 20.25,-12.15 c -2.7,-2.7 -5.399,-2.7 -8.1,0 z"
             style="fill:#c154c1;fill-opacity:1;fill-rule:nonzero;stroke:none"
             id="path646" /></g><g
           id="g648"
           transform="translate(477,794.25)"><path
             d="m 0,0 c -3.833,3.833 -3.833,7.667 0,11.5 l 17.25,17.25 c 3.833,3.833 7.667,3.833 11.5,0 L 46,11.5 C 49.833,7.667 49.833,3.833 46,0 L 28.75,-17.25 c -3.833,-3.833 -7.667,-3.833 -11.5,0 z"
             style="fill:#c154c1;fill-opacity:1;fill-rule:nonzero;stroke:none"
             id="path650" /></g><g
           id="g652"
           transform="translate(470.2002,692.5498)"><path
             d="m 0,0 c -4.967,4.967 -4.967,9.934 0,14.9 l 22.35,22.35 c 4.966,4.967 9.933,4.967 14.9,0 L 59.6,14.9 C 64.566,9.934 64.566,4.967 59.6,0 L 37.25,-22.35 c -4.967,-4.966 -9.934,-4.966 -14.9,0 z"
             style="fill:#c154c1;fill-opacity:1;fill-rule:nonzero;stroke:none"
             id="path654" /></g><g
           id="g656"
           transform="translate(463.4004,590.8496)"><path
             d="m 0,0 c -6.101,6.101 -6.101,12.2 0,18.3 l 27.449,27.45 c 6.101,6.101 12.2,6.101 18.301,0 L 73.199,18.3 C 79.3,12.2 79.3,6.101 73.199,0 L 45.75,-27.449 c -6.101,-6.101 -12.2,-6.101 -18.301,0 z"
             style="fill:#c154c1;fill-opacity:1;fill-rule:nonzero;stroke:none"
             id="path658" /></g><g
           id="g660"
           transform="translate(460,490)"><path
             d="m 0,0 c -6.667,6.667 -6.667,13.333 0,20 l 30,30 c 6.667,6.667 13.333,6.667 20,0 L 80,20 C 86.667,13.333 86.667,6.667 80,0 L 50,-30 c -6.667,-6.667 -13.333,-6.667 -20,0 z"
             style="fill:#c154c1;fill-opacity:1;fill-rule:nonzero;stroke:none"
             id="path662" /></g><g
           id="g664"
           transform="translate(463.4004,390.8496)"><path
             d="M 0,0 C -6.101,6.101 -6.101,12.2 0,18.301 L 27.449,45.75 c 6.101,6.101 12.2,6.101 18.301,0 L 73.199,18.301 C 79.3,12.2 79.3,6.101 73.199,0 L 45.75,-27.449 c -6.101,-6.101 -12.2,-6.101 -18.301,0 z"
             style="fill:#c154c1;fill-opacity:1;fill-rule:nonzero;stroke:none"
             id="path666" /></g><g
           id="g668"
           transform="translate(470.2002,292.5498)"><path
             d="m 0,0 c -4.967,4.967 -4.967,9.934 0,14.9 l 22.35,22.35 c 4.966,4.967 9.933,4.967 14.9,0 L 59.6,14.9 C 64.566,9.934 64.566,4.967 59.6,0 L 37.25,-22.35 c -4.967,-4.966 -9.934,-4.966 -14.9,0 z"
             style="fill:#c154c1;fill-opacity:1;fill-rule:nonzero;stroke:none"
             id="path670" /></g><g
           id="g672"
           transform="translate(477,194.25)"><path
             d="m 0,0 c -3.833,3.833 -3.833,7.667 0,11.5 l 17.25,17.25 c 3.833,3.833 7.667,3.833 11.5,0 L 46,11.5 C 49.833,7.667 49.833,3.833 46,0 L 28.75,-17.25 c -3.833,-3.833 -7.667,-3.833 -11.5,0 z"
             style="fill:#c154c1;fill-opacity:1;fill-rule:nonzero;stroke:none"
             id="path674" /></g><g
           id="g676"
           transform="translate(483.7998,95.9502)"><path
             d="m 0,0 c -2.7,2.7 -2.7,5.399 0,8.1 l 12.15,12.15 c 2.701,2.7 5.4,2.7 8.1,0 L 32.4,8.1 C 35.101,5.399 35.101,2.7 32.4,0 L 20.25,-12.15 c -2.7,-2.701 -5.399,-2.701 -8.1,0 z"
             style="fill:#c154c1;fill-opacity:1;fill-rule:nonzero;stroke:none"
             id="path678" /></g><g
           id="g680"
           transform="translate(490.5996,-2.3496)"><path
             d="m 0,0 c -1.566,1.566 -1.566,3.133 0,4.699 l 7.051,7.051 c 1.566,1.566 3.133,1.566 4.699,0 L 18.801,4.699 C 20.367,3.133 20.367,1.566 18.801,0 L 11.75,-7.051 c -1.566,-1.566 -3.133,-1.566 -4.699,0 z"
             style="fill:#c154c1;fill-opacity:1;fill-rule:nonzero;stroke:none"
             id="path682" /></g><g
           id="g684"
           transform="translate(590.5996,997.6499)"><path
             d="m 0,0 c -1.566,1.567 -1.566,3.133 0,4.7 l 7.051,7.05 c 1.566,1.567 3.133,1.567 4.699,0 L 18.801,4.7 c 1.566,-1.567 1.566,-3.133 0,-4.7 L 11.75,-7.05 c -1.566,-1.567 -3.133,-1.567 -4.699,0 z"
             style="fill:#c154c1;fill-opacity:1;fill-rule:nonzero;stroke:none"
             id="path686" /></g><g
           id="g688"
           transform="translate(583.7998,895.9502)"><path
             d="m 0,0 c -2.7,2.7 -2.7,5.4 0,8.1 l 12.15,12.15 c 2.701,2.7 5.4,2.7 8.1,0 L 32.4,8.1 C 35.101,5.4 35.101,2.7 32.4,0 L 20.25,-12.15 c -2.7,-2.7 -5.399,-2.7 -8.1,0 z"
             style="fill:#c154c1;fill-opacity:1;fill-rule:nonzero;stroke:none"
             id="path690" /></g><g
           id="g692"
           transform="translate(577,794.25)"><path
             d="m 0,0 c -3.833,3.833 -3.833,7.667 0,11.5 l 17.25,17.25 c 3.833,3.833 7.667,3.833 11.5,0 L 46,11.5 C 49.833,7.667 49.833,3.833 46,0 L 28.75,-17.25 c -3.833,-3.833 -7.667,-3.833 -11.5,0 z"
             style="fill:#c154c1;fill-opacity:1;fill-rule:nonzero;stroke:none"
             id="path694" /></g><g
           id="g696"
           transform="translate(570.2002,692.5498)"><path
             d="m 0,0 c -4.967,4.967 -4.967,9.934 0,14.9 l 22.35,22.35 c 4.966,4.967 9.933,4.967 14.9,0 L 59.6,14.9 C 64.566,9.934 64.566,4.967 59.6,0 L 37.25,-22.35 c -4.967,-4.966 -9.934,-4.966 -14.9,0 z"
             style="fill:#c154c1;fill-opacity:1;fill-rule:nonzero;stroke:none"
             id="path698" /></g><g
           id="g700"
           transform="translate(563.4004,590.8496)"><path
             d="m 0,0 c -6.101,6.101 -6.101,12.2 0,18.3 l 27.449,27.45 c 6.101,6.101 12.2,6.101 18.301,0 L 73.199,18.3 C 79.3,12.2 79.3,6.101 73.199,0 L 45.75,-27.449 c -6.101,-6.101 -12.2,-6.101 -18.301,0 z"
             style="fill:#c154c1;fill-opacity:1;fill-rule:nonzero;stroke:none"
             id="path702" /></g><g
           id="g704"
           transform="translate(560,490)"><path
             d="m 0,0 c -6.667,6.667 -6.667,13.333 0,20 l 30,30 c 6.667,6.667 13.333,6.667 20,0 L 80,20 C 86.667,13.333 86.667,6.667 80,0 L 50,-30 c -6.667,-6.667 -13.333,-6.667 -20,0 z"
             style="fill:#c154c1;fill-opacity:1;fill-rule:nonzero;stroke:none"
             id="path706" /></g><g
           id="g708"
           transform="translate(563.4004,390.8496)"><path
             d="M 0,0 C -6.101,6.101 -6.101,12.2 0,18.301 L 27.449,45.75 c 6.101,6.101 12.2,6.101 18.301,0 L 73.199,18.301 C 79.3,12.2 79.3,6.101 73.199,0 L 45.75,-27.449 c -6.101,-6.101 -12.2,-6.101 -18.301,0 z"
             style="fill:#c154c1;fill-opacity:1;fill-rule:nonzero;stroke:none"
             id="path710" /></g><g
           id="g712"
           transform="translate(570.2002,292.5498)"><path
             d="m 0,0 c -4.967,4.967 -4.967,9.934 0,14.9 l 22.35,22.35 c 4.966,4.967 9.933,4.967 14.9,0 L 59.6,14.9 C 64.566,9.934 64.566,4.967 59.6,0 L 37.25,-22.35 c -4.967,-4.966 -9.934,-4.966 -14.9,0 z"
             style="fill:#c154c1;fill-opacity:1;fill-rule:nonzero;stroke:none"
             id="path714" /></g><g
           id="g716"
           transform="translate(577,194.25)"><path
             d="m 0,0 c -3.833,3.833 -3.833,7.667 0,11.5 l 17.25,17.25 c 3.833,3.833 7.667,3.833 11.5,0 L 46,11.5 C 49.833,7.667 49.833,3.833 46,0 L 28.75,-17.25 c -3.833,-3.833 -7.667,-3.833 -11.5,0 z"
             style="fill:#c154c1;fill-opacity:1;fill-rule:nonzero;stroke:none"
             id="path718" /></g><g
           id="g720"
           transform="translate(583.7998,95.9502)"><path
             d="m 0,0 c -2.7,2.7 -2.7,5.399 0,8.1 l 12.15,12.15 c 2.701,2.7 5.4,2.7 8.1,0 L 32.4,8.1 C 35.101,5.399 35.101,2.7 32.4,0 L 20.25,-12.15 c -2.7,-2.701 -5.399,-2.701 -8.1,0 z"
             style="fill:#c154c1;fill-opacity:1;fill-rule:nonzero;stroke:none"
             id="path722" /></g><g
           id="g724"
           transform="translate(590.5996,-2.3496)"><path
             d="m 0,0 c -1.566,1.566 -1.566,3.133 0,4.699 l 7.051,7.051 c 1.566,1.566 3.133,1.566 4.699,0 L 18.801,4.699 C 20.367,3.133 20.367,1.566 18.801,0 L 11.75,-7.051 c -1.566,-1.566 -3.133,-1.566 -4.699,0 z"
             style="fill:#c154c1;fill-opacity:1;fill-rule:nonzero;stroke:none"
             id="path726" /></g><g
           id="g728"
           transform="translate(690.5996,997.6499)"><path
             d="m 0,0 c -1.566,1.567 -1.566,3.133 0,4.7 l 7.051,7.05 c 1.566,1.567 3.133,1.567 4.699,0 L 18.801,4.7 c 1.566,-1.567 1.566,-3.133 0,-4.7 L 11.75,-7.05 c -1.566,-1.567 -3.133,-1.567 -4.699,0 z"
             style="fill:#c154c1;fill-opacity:1;fill-rule:nonzero;stroke:none"
             id="path730" /></g><g
           id="g732"
           transform="translate(683.7998,895.9502)"><path
             d="m 0,0 c -2.7,2.7 -2.7,5.4 0,8.1 l 12.15,12.15 c 2.701,2.7 5.4,2.7 8.1,0 L 32.4,8.1 C 35.101,5.4 35.101,2.7 32.4,0 L 20.25,-12.15 c -2.7,-2.7 -5.399,-2.7 -8.1,0 z"
             style="fill:#c154c1;fill-opacity:1;fill-rule:nonzero;stroke:none"
             id="path734" /></g><g
           id="g736"
           transform="translate(677,794.25)"><path
             d="m 0,0 c -3.833,3.833 -3.833,7.667 0,11.5 l 17.25,17.25 c 3.833,3.833 7.667,3.833 11.5,0 L 46,11.5 C 49.833,7.667 49.833,3.833 46,0 L 28.75,-17.25 c -3.833,-3.833 -7.667,-3.833 -11.5,0 z"
             style="fill:#c154c1;fill-opacity:1;fill-rule:nonzero;stroke:none"
             id="path738" /></g><g
           id="g740"
           transform="translate(670.2002,692.5498)"><path
             d="m 0,0 c -4.967,4.967 -4.967,9.934 0,14.9 l 22.35,22.35 c 4.966,4.967 9.933,4.967 14.9,0 L 59.6,14.9 C 64.566,9.934 64.566,4.967 59.6,0 L 37.25,-22.35 c -4.967,-4.966 -9.934,-4.966 -14.9,0 z"
             style="fill:#c154c1;fill-opacity:1;fill-rule:nonzero;stroke:none"
             id="path742" /></g><g
           id="g744"
           transform="translate(663.4004,590.8496)"><path
             d="m 0,0 c -6.101,6.101 -6.101,12.2 0,18.3 l 27.449,27.45 c 6.101,6.101 12.2,6.101 18.301,0 L 73.199,18.3 C 79.3,12.2 79.3,6.101 73.199,0 L 45.75,-27.449 c -6.101,-6.101 -12.2,-6.101 -18.301,0 z"
             style="fill:#c154c1;fill-opacity:1;fill-rule:nonzero;stroke:none"
             id="path746" /></g><g
           id="g748"
           transform="translate(660,490)"><path
             d="m 0,0 c -6.667,6.667 -6.667,13.333 0,20 l 30,30 c 6.667,6.667 13.333,6.667 20,0 L 80,20 C 86.667,13.333 86.667,6.667 80,0 L 50,-30 c -6.667,-6.667 -13.333,-6.667 -20,0 z"
             style="fill:#c154c1;fill-opacity:1;fill-rule:nonzero;stroke:none"
             id="path750" /></g><g
           id="g752"
           transform="translate(663.4004,390.8496)"><path
             d="M 0,0 C -6.101,6.101 -6.101,12.2 0,18.301 L 27.449,45.75 c 6.101,6.101 12.2,6.101 18.301,0 L 73.199,18.301 C 79.3,12.2 79.3,6.101 73.199,0 L 45.75,-27.449 c -6.101,-6.101 -12.2,-6.101 -18.301,0 z"
             style="fill:#c154c1;fill-opacity:1;fill-rule:nonzero;stroke:none"
             id="path754" /></g><g
           id="g756"
           transform="translate(670.2002,292.5498)"><path
             d="m 0,0 c -4.967,4.967 -4.967,9.934 0,14.9 l 22.35,22.35 c 4.966,4.967 9.933,4.967 14.9,0 L 59.6,14.9 C 64.566,9.934 64.566,4.967 59.6,0 L 37.25,-22.35 c -4.967,-4.966 -9.934,-4.966 -14.9,0 z"
             style="fill:#c154c1;fill-opacity:1;fill-rule:nonzero;stroke:none"
             id="path758" /></g><g
           id="g760"
           transform="translate(677,194.25)"><path
             d="m 0,0 c -3.833,3.833 -3.833,7.667 0,11.5 l 17.25,17.25 c 3.833,3.833 7.667,3.833 11.5,0 L 46,11.5 C 49.833,7.667 49.833,3.833 46,0 L 28.75,-17.25 c -3.833,-3.833 -7.667,-3.833 -11.5,0 z"
             style="fill:#c154c1;fill-opacity:1;fill-rule:nonzero;stroke:none"
             id="path762" /></g><g
           id="g764"
           transform="translate(683.7998,95.9502)"><path
             d="m 0,0 c -2.7,2.7 -2.7,5.399 0,8.1 l 12.15,12.15 c 2.701,2.7 5.4,2.7 8.1,0 L 32.4,8.1 C 35.101,5.399 35.101,2.7 32.4,0 L 20.25,-12.15 c -2.7,-2.701 -5.399,-2.701 -8.1,0 z"
             style="fill:#c154c1;fill-opacity:1;fill-rule:nonzero;stroke:none"
             id="path766" /></g><g
           id="g768"
           transform="translate(690.5996,-2.3496)"><path
             d="m 0,0 c -1.566,1.566 -1.566,3.133 0,4.699 l 7.051,7.051 c 1.566,1.566 3.133,1.566 4.699,0 L 18.801,4.699 C 20.367,3.133 20.367,1.566 18.801,0 L 11.75,-7.051 c -1.566,-1.566 -3.133,-1.566 -4.699,0 z"
             style="fill:#c154c1;fill-opacity:1;fill-rule:nonzero;stroke:none"
             id="path770" /></g><g
           id="g772"
           transform="translate(790.5996,997.6499)"><path
             d="m 0,0 c -1.566,1.567 -1.566,3.133 0,4.7 l 7.051,7.05 c 1.566,1.567 3.133,1.567 4.699,0 L 18.801,4.7 c 1.566,-1.567 1.566,-3.133 0,-4.7 L 11.75,-7.05 c -1.566,-1.567 -3.133,-1.567 -4.699,0 z"
             style="fill:#c154c1;fill-opacity:1;fill-rule:nonzero;stroke:none"
             id="path774" /></g><g
           id="g776"
           transform="translate(783.7998,895.9502)"><path
             d="m 0,0 c -2.7,2.7 -2.7,5.4 0,8.1 l 12.15,12.15 c 2.701,2.7 5.4,2.7 8.1,0 L 32.4,8.1 C 35.101,5.4 35.101,2.7 32.4,0 L 20.25,-12.15 c -2.7,-2.7 -5.399,-2.7 -8.1,0 z"
             style="fill:#c154c1;fill-opacity:1;fill-rule:nonzero;stroke:none"
             id="path778" /></g><g
           id="g780"
           transform="translate(777,794.25)"><path
             d="m 0,0 c -3.833,3.833 -3.833,7.667 0,11.5 l 17.25,17.25 c 3.833,3.833 7.667,3.833 11.5,0 L 46,11.5 C 49.833,7.667 49.833,3.833 46,0 L 28.75,-17.25 c -3.833,-3.833 -7.667,-3.833 -11.5,0 z"
             style="fill:#c154c1;fill-opacity:1;fill-rule:nonzero;stroke:none"
             id="path782" /></g><g
           id="g784"
           transform="translate(770.2002,692.5498)"><path
             d="m 0,0 c -4.967,4.967 -4.967,9.934 0,14.9 l 22.35,22.35 c 4.966,4.967 9.933,4.967 14.9,0 L 59.6,14.9 C 64.566,9.934 64.566,4.967 59.6,0 L 37.25,-22.35 c -4.967,-4.966 -9.934,-4.966 -14.9,0 z"
             style="fill:#c154c1;fill-opacity:1;fill-rule:nonzero;stroke:none"
             id="path786" /></g><g
           id="g788"
           transform="translate(763.4004,590.8496)"><path
             d="m 0,0 c -6.101,6.101 -6.101,12.2 0,18.3 l 27.449,27.45 c 6.101,6.101 12.2,6.101 18.301,0 L 73.199,18.3 C 79.3,12.2 79.3,6.101 73.199,0 L 45.75,-27.449 c -6.101,-6.101 -12.2,-6.101 -18.301,0 z"
             style="fill:#c154c1;fill-opacity:1;fill-rule:nonzero;stroke:none"
             id="path790" /></g><g
           id="g792"
           transform="translate(760,490)"><path
             d="m 0,0 c -6.667,6.667 -6.667,13.333 0,20 l 30,30 c 6.667,6.667 13.333,6.667 20,0 L 80,20 C 86.667,13.333 86.667,6.667 80,0 L 50,-30 c -6.667,-6.667 -13.333,-6.667 -20,0 z"
             style="fill:#c154c1;fill-opacity:1;fill-rule:nonzero;stroke:none"
             id="path794" /></g><g
           id="g796"
           transform="translate(763.4004,390.8496)"><path
             d="M 0,0 C -6.101,6.101 -6.101,12.2 0,18.301 L 27.449,45.75 c 6.101,6.101 12.2,6.101 18.301,0 L 73.199,18.301 C 79.3,12.2 79.3,6.101 73.199,0 L 45.75,-27.449 c -6.101,-6.101 -12.2,-6.101 -18.301,0 z"
             style="fill:#c154c1;fill-opacity:1;fill-rule:nonzero;stroke:none"
             id="path798" /></g><g
           id="g800"
           transform="translate(770.2002,292.5498)"><path
             d="m 0,0 c -4.967,4.967 -4.967,9.934 0,14.9 l 22.35,22.35 c 4.966,4.967 9.933,4.967 14.9,0 L 59.6,14.9 C 64.566,9.934 64.566,4.967 59.6,0 L 37.25,-22.35 c -4.967,-4.966 -9.934,-4.966 -14.9,0 z"
             style="fill:#c154c1;fill-opacity:1;fill-rule:nonzero;stroke:none"
             id="path802" /></g><g
           id="g804"
           transform="translate(777,194.25)"><path
             d="m 0,0 c -3.833,3.833 -3.833,7.667 0,11.5 l 17.25,17.25 c 3.833,3.833 7.667,3.833 11.5,0 L 46,11.5 C 49.833,7.667 49.833,3.833 46,0 L 28.75,-17.25 c -3.833,-3.833 -7.667,-3.833 -11.5,0 z"
             style="fill:#c154c1;fill-opacity:1;fill-rule:nonzero;stroke:none"
             id="path806" /></g><g
           id="g808"
           transform="translate(783.7998,95.9502)"><path
             d="m 0,0 c -2.7,2.7 -2.7,5.399 0,8.1 l 12.15,12.15 c 2.701,2.7 5.4,2.7 8.1,0 L 32.4,8.1 C 35.101,5.399 35.101,2.7 32.4,0 L 20.25,-12.15 c -2.7,-2.701 -5.399,-2.701 -8.1,0 z"
             style="fill:#c154c1;fill-opacity:1;fill-rule:nonzero;stroke:none"
             id="path810" /></g><g
           id="g812"
           transform="translate(790.5996,-2.3496)"><path
             d="m 0,0 c -1.566,1.566 -1.566,3.133 0,4.699 l 7.051,7.051 c 1.566,1.566 3.133,1.566 4.699,0 L 18.801,4.699 C 20.367,3.133 20.367,1.566 18.801,0 L 11.75,-7.051 c -1.566,-1.566 -3.133,-1.566 -4.699,0 z"
             style="fill:#c154c1;fill-opacity:1;fill-rule:nonzero;stroke:none"
             id="path814" /></g><g
           id="g816"
           transform="translate(890.5996,997.6499)"><path
             d="m 0,0 c -1.566,1.567 -1.566,3.133 0,4.7 l 7.051,7.05 c 1.566,1.567 3.133,1.567 4.699,0 L 18.801,4.7 c 1.566,-1.567 1.566,-3.133 0,-4.7 L 11.75,-7.05 c -1.566,-1.567 -3.133,-1.567 -4.699,0 z"
             style="fill:#c154c1;fill-opacity:1;fill-rule:nonzero;stroke:none"
             id="path818" /></g><g
           id="g820"
           transform="translate(883.7998,895.9502)"><path
             d="m 0,0 c -2.7,2.7 -2.7,5.4 0,8.1 l 12.15,12.15 c 2.701,2.7 5.4,2.7 8.1,0 L 32.4,8.1 C 35.101,5.4 35.101,2.7 32.4,0 L 20.25,-12.15 c -2.7,-2.7 -5.399,-2.7 -8.1,0 z"
             style="fill:#c154c1;fill-opacity:1;fill-rule:nonzero;stroke:none"
             id="path822" /></g><g
           id="g824"
           transform="translate(877,794.25)"><path
             d="m 0,0 c -3.833,3.833 -3.833,7.667 0,11.5 l 17.25,17.25 c 3.833,3.833 7.667,3.833 11.5,0 L 46,11.5 C 49.833,7.667 49.833,3.833 46,0 L 28.75,-17.25 c -3.833,-3.833 -7.667,-3.833 -11.5,0 z"
             style="fill:#c154c1;fill-opacity:1;fill-rule:nonzero;stroke:none"
             id="path826" /></g><g
           id="g828"
           transform="translate(870.2002,692.5498)"><path
             d="m 0,0 c -4.967,4.967 -4.967,9.934 0,14.9 l 22.35,22.35 c 4.966,4.967 9.933,4.967 14.9,0 L 59.6,14.9 C 64.566,9.934 64.566,4.967 59.6,0 L 37.25,-22.35 c -4.967,-4.966 -9.934,-4.966 -14.9,0 z"
             style="fill:#c154c1;fill-opacity:1;fill-rule:nonzero;stroke:none"
             id="path830" /></g><g
           id="g832"
           transform="translate(863.4004,590.8496)"><path
             d="m 0,0 c -6.101,6.101 -6.101,12.2 0,18.3 l 27.449,27.45 c 6.101,6.101 12.2,6.101 18.301,0 L 73.199,18.3 C 79.3,12.2 79.3,6.101 73.199,0 L 45.75,-27.449 c -6.101,-6.101 -12.2,-6.101 -18.301,0 z"
             style="fill:#c154c1;fill-opacity:1;fill-rule:nonzero;stroke:none"
             id="path834" /></g><g
           id="g836"
           transform="translate(860,490)"><path
             d="m 0,0 c -6.667,6.667 -6.667,13.333 0,20 l 30,30 c 6.667,6.667 13.333,6.667 20,0 L 80,20 C 86.667,13.333 86.667,6.667 80,0 L 50,-30 c -6.667,-6.667 -13.333,-6.667 -20,0 z"
             style="fill:#c154c1;fill-opacity:1;fill-rule:nonzero;stroke:none"
             id="path838" /></g><g
           id="g840"
           transform="translate(863.4004,390.8496)"><path
             d="M 0,0 C -6.101,6.101 -6.101,12.2 0,18.301 L 27.449,45.75 c 6.101,6.101 12.2,6.101 18.301,0 L 73.199,18.301 C 79.3,12.2 79.3,6.101 73.199,0 L 45.75,-27.449 c -6.101,-6.101 -12.2,-6.101 -18.301,0 z"
             style="fill:#c154c1;fill-opacity:1;fill-rule:nonzero;stroke:none"
             id="path842" /></g><g
           id="g844"
           transform="translate(870.2002,292.5498)"><path
             d="m 0,0 c -4.967,4.967 -4.967,9.934 0,14.9 l 22.35,22.35 c 4.966,4.967 9.933,4.967 14.9,0 L 59.6,14.9 C 64.566,9.934 64.566,4.967 59.6,0 L 37.25,-22.35 c -4.967,-4.966 -9.934,-4.966 -14.9,0 z"
             style="fill:#c154c1;fill-opacity:1;fill-rule:nonzero;stroke:none"
             id="path846" /></g><g
           id="g848"
           transform="translate(877,194.25)"><path
             d="m 0,0 c -3.833,3.833 -3.833,7.667 0,11.5 l 17.25,17.25 c 3.833,3.833 7.667,3.833 11.5,0 L 46,11.5 C 49.833,7.667 49.833,3.833 46,0 L 28.75,-17.25 c -3.833,-3.833 -7.667,-3.833 -11.5,0 z"
             style="fill:#c154c1;fill-opacity:1;fill-rule:nonzero;stroke:none"
             id="path850" /></g><g
           id="g852"
           transform="translate(883.7998,95.9502)"><path
             d="m 0,0 c -2.7,2.7 -2.7,5.399 0,8.1 l 12.15,12.15 c 2.701,2.7 5.4,2.7 8.1,0 L 32.4,8.1 C 35.101,5.399 35.101,2.7 32.4,0 L 20.25,-12.15 c -2.7,-2.701 -5.399,-2.701 -8.1,0 z"
             style="fill:#c154c1;fill-opacity:1;fill-rule:nonzero;stroke:none"
             id="path854" /></g><g
           id="g856"
           transform="translate(890.5996,-2.3496)"><path
             d="m 0,0 c -1.566,1.566 -1.566,3.133 0,4.699 l 7.051,7.051 c 1.566,1.566 3.133,1.566 4.699,0 L 18.801,4.699 C 20.367,3.133 20.367,1.566 18.801,0 L 11.75,-7.051 c -1.566,-1.566 -3.133,-1.566 -4.699,0 z"
             style="fill:#c154c1;fill-opacity:1;fill-rule:nonzero;stroke:none"
             id="path858" /></g><g
           id="g860"
           transform="translate(990.5996,997.6499)"><path
             d="m 0,0 c -1.566,1.567 -1.566,3.133 0,4.7 l 7.051,7.05 c 1.566,1.567 3.133,1.567 4.699,0 L 18.801,4.7 c 1.566,-1.567 1.566,-3.133 0,-4.7 L 11.75,-7.05 c -1.566,-1.567 -3.133,-1.567 -4.699,0 z"
             style="fill:#c154c1;fill-opacity:1;fill-rule:nonzero;stroke:none"
             id="path862" /></g><g
           id="g864"
           transform="translate(983.7998,895.9502)"><path
             d="m 0,0 c -2.7,2.7 -2.7,5.4 0,8.1 l 12.15,12.15 c 2.701,2.7 5.4,2.7 8.1,0 L 32.4,8.1 C 35.101,5.4 35.101,2.7 32.4,0 L 20.25,-12.15 c -2.7,-2.7 -5.399,-2.7 -8.1,0 z"
             style="fill:#c154c1;fill-opacity:1;fill-rule:nonzero;stroke:none"
             id="path866" /></g><g
           id="g868"
           transform="translate(977,794.25)"><path
             d="m 0,0 c -3.833,3.833 -3.833,7.667 0,11.5 l 17.25,17.25 c 3.833,3.833 7.667,3.833 11.5,0 L 46,11.5 C 49.833,7.667 49.833,3.833 46,0 L 28.75,-17.25 c -3.833,-3.833 -7.667,-3.833 -11.5,0 z"
             style="fill:#c154c1;fill-opacity:1;fill-rule:nonzero;stroke:none"
             id="path870" /></g><g
           id="g872"
           transform="translate(970.2002,692.5498)"><path
             d="m 0,0 c -4.967,4.967 -4.967,9.934 0,14.9 l 22.35,22.35 c 4.966,4.967 9.933,4.967 14.9,0 L 59.6,14.9 C 64.566,9.934 64.566,4.967 59.6,0 L 37.25,-22.35 c -4.967,-4.966 -9.934,-4.966 -14.9,0 z"
             style="fill:#c154c1;fill-opacity:1;fill-rule:nonzero;stroke:none"
             id="path874" /></g><g
           id="g876"
           transform="translate(963.4004,590.8496)"><path
             d="m 0,0 c -6.101,6.101 -6.101,12.2 0,18.3 l 27.449,27.45 c 6.101,6.101 12.2,6.101 18.301,0 L 73.199,18.3 C 79.3,12.2 79.3,6.101 73.199,0 L 45.75,-27.449 c -6.101,-6.101 -12.2,-6.101 -18.301,0 z"
             style="fill:#c154c1;fill-opacity:1;fill-rule:nonzero;stroke:none"
             id="path878" /></g><g
           id="g880"
           transform="translate(960,490)"><path
             d="m 0,0 c -6.667,6.667 -6.667,13.333 0,20 l 30,30 c 6.667,6.667 13.333,6.667 20,0 L 80,20 C 86.667,13.333 86.667,6.667 80,0 L 50,-30 c -6.667,-6.667 -13.333,-6.667 -20,0 z"
             style="fill:#c154c1;fill-opacity:1;fill-rule:nonzero;stroke:none"
             id="path882" /></g><g
           id="g884"
           transform="translate(963.4004,390.8496)"><path
             d="M 0,0 C -6.101,6.101 -6.101,12.2 0,18.301 L 27.449,45.75 c 6.101,6.101 12.2,6.101 18.301,0 L 73.199,18.301 C 79.3,12.2 79.3,6.101 73.199,0 L 45.75,-27.449 c -6.101,-6.101 -12.2,-6.101 -18.301,0 z"
             style="fill:#c154c1;fill-opacity:1;fill-rule:nonzero;stroke:none"
             id="path886" /></g><g
           id="g888"
           transform="translate(970.2002,292.5498)"><path
             d="m 0,0 c -4.967,4.967 -4.967,9.934 0,14.9 l 22.35,22.35 c 4.966,4.967 9.933,4.967 14.9,0 L 59.6,14.9 C 64.566,9.934 64.566,4.967 59.6,0 L 37.25,-22.35 c -4.967,-4.966 -9.934,-4.966 -14.9,0 z"
             style="fill:#c154c1;fill-opacity:1;fill-rule:nonzero;stroke:none"
             id="path890" /></g><g
           id="g892"
           transform="translate(977,194.25)"><path
             d="m 0,0 c -3.833,3.833 -3.833,7.667 0,11.5 l 17.25,17.25 c 3.833,3.833 7.667,3.833 11.5,0 L 46,11.5 C 49.833,7.667 49.833,3.833 46,0 L 28.75,-17.25 c -3.833,-3.833 -7.667,-3.833 -11.5,0 z"
             style="fill:#c154c1;fill-opacity:1;fill-rule:nonzero;stroke:none"
             id="path894" /></g><g
           id="g896"
           transform="translate(983.7998,95.9502)"><path
             d="m 0,0 c -2.7,2.7 -2.7,5.399 0,8.1 l 12.15,12.15 c 2.701,2.7 5.4,2.7 8.1,0 L 32.4,8.1 C 35.101,5.399 35.101,2.7 32.4,0 L 20.25,-12.15 c -2.7,-2.701 -5.399,-2.701 -8.1,0 z"
             style="fill:#c154c1;fill-opacity:1;fill-rule:nonzero;stroke:none"
             id="path898" /></g><g
           id="g900"
           transform="translate(990.5996,-2.3496)"><path
             d="m 0,0 c -1.566,1.566 -1.566,3.133 0,4.699 l 7.051,7.051 c 1.566,1.566 3.133,1.566 4.699,0 L 18.801,4.699 C 20.367,3.133 20.367,1.566 18.801,0 L 11.75,-7.051 c -1.566,-1.566 -3.133,-1.566 -4.699,0 z"
             style="fill:#c154c1;fill-opacity:1;fill-rule:nonzero;stroke:none"
             id="path902" /></g></g></g></g></svg>
